<svg width="130" height="172" viewBox="0 0 130 172" fill="none" xmlns="http://www.w3.org/2000/svg">
<path d="M0 0H92.1172L129.121 34.6423V171.637H0V0Z" fill="white"/>
<path d="M39.5302 80.2389V75.8589H68.6602V80.2389H39.5302ZM39.5302 91.6389V87.2589H68.6602V91.6389H39.5302Z" fill="#1F1F1F"/>
<path d="M63.2367 80.2389V75.8589H84.2367V80.2389H63.2367ZM63.2367 91.6389V87.2589H84.2367V91.6389H63.2367ZM76.1667 65.4789L92.4867 83.7489L76.1667 102.019L72.4467 98.8389L76.1967 94.7589C76.6567 94.2189 77.1567 93.6889 77.6967 93.1689C78.2567 92.6489 78.9867 92.1389 79.8867 91.6389L82.9767 87.2589L86.1867 83.7489L82.9767 80.2389L79.8867 75.8589C78.9867 75.3589 78.2567 74.8489 77.6967 74.3289C77.1567 73.7889 76.6567 73.2589 76.1967 72.7389L72.4467 68.6589L76.1667 65.4789Z" fill="#1F1F1F"/>
</svg>
