<svg width="1340" height="619" viewBox="0 0 1340 619" fill="none" xmlns="http://www.w3.org/2000/svg">
<rect width="1340" height="619" fill="black"/>
<path d="M57.62 598.044H29.1605L24.0434 619H0L29.7213 521.861H57.62L87.3413 619H62.7371L57.62 598.044ZM32.8056 581.364H53.8348L43.3202 538.401L32.8056 581.364Z" fill="white"/>
<path d="M60.5641 386.034H26.0061L19.2768 409.303H2.7338L33.5065 312.584H53.6946L84.5374 409.303H67.2935L60.5641 386.034ZM29.3708 373.489H57.1294L43.3202 325.199L29.3708 373.489Z" fill="white"/>
<path d="M62.3166 177.248H24.1135L16.4028 201.848H4.41613L35.8198 105.339H51.3814L82.785 201.848H70.0273L62.3166 177.248ZM27.2679 167.155H59.1622L43.3202 115.572L27.2679 167.155Z" fill="white"/>
<path d="M1140.48 438.248H1172.38L1178.41 416.031H1198.24L1167.89 512.96H1144.34L1114.06 416.031H1134.46L1140.48 438.248ZM1168.94 452.616H1144.06L1156.47 498.592L1168.94 452.616Z" fill="white"/>
<path d="M1279.56 438.248H1311.45L1317.48 416.031H1337.32L1306.97 512.96H1283.41L1253.13 416.031H1273.53L1279.56 438.248ZM1308.02 452.616H1283.13L1295.54 498.592L1308.02 452.616Z" fill="white"/>
<path d="M1138.24 232.616H1174.83L1182.12 208.576H1196.07L1164.95 305.155H1147.42L1116.23 208.576H1130.95L1138.24 232.616ZM1171.61 243.759H1141.47L1156.47 293.941L1171.61 243.759Z" fill="white"/>
<path d="M1277.31 232.616H1313.91L1321.2 208.576H1335.14L1304.02 305.155H1286.5L1255.3 208.576H1270.02L1277.31 232.616ZM1310.68 243.759H1280.54L1295.54 293.941L1310.68 243.759Z" fill="white"/>
<path d="M1136.07 25.7216L1177.15 25.7216L1185.63 5.88203e-06L1194.04 6.61729e-06L1162.14 96.2982H1150.3L1118.33 0L1127.59 8.0878e-07L1136.07 25.7216ZM1174.13 33.8516L1139.01 33.8516L1156.47 87.958L1174.13 33.8516Z" fill="white"/>
<path d="M1275.14 25.7216L1316.22 25.7216L1324.7 5.88203e-06L1333.11 6.61729e-06L1301.22 96.2982H1289.37L1257.41 0L1266.66 8.0878e-07L1275.14 25.7216ZM1313.2 33.8516L1278.09 33.8516L1295.54 87.958L1313.2 33.8516Z" fill="white"/>
<path d="M613.913 598.044H585.453L580.336 619H556.293L586.014 521.861H613.913L643.634 619H619.03L613.913 598.044ZM589.098 581.364H610.128L599.613 538.401L589.098 581.364Z" fill="white"/>
<path d="M616.857 386.034H582.299L575.57 409.303H559.027L589.799 312.584H609.987L640.83 409.303H623.586L616.857 386.034ZM585.664 373.489H613.422L599.613 325.199L585.664 373.489Z" fill="white"/>
<path d="M618.609 177.248H580.406L572.696 201.848H560.709L592.113 105.339H607.674L639.078 201.848H626.32L618.609 177.248ZM583.561 167.155H615.455L599.613 115.572L583.561 167.155Z" fill="white"/>
<path d="M584.191 438.248H616.086L622.114 416.031H641.952L611.6 512.96H588.047L557.765 416.031H578.163L584.191 438.248ZM612.651 452.616H587.766L600.174 498.592L612.651 452.616Z" fill="white"/>
<path d="M581.948 232.616H618.539L625.829 208.576H639.779L608.655 305.155H591.131L559.938 208.576H574.658L581.948 232.616ZM615.315 243.759H585.173L600.174 293.941L615.315 243.759Z" fill="white"/>
<path d="M579.775 25.7216L620.852 25.7216L629.334 5.88203e-06L637.746 6.61729e-06L605.852 96.2982H594.005L562.041 0L571.294 8.0878e-07L579.775 25.7216ZM617.838 33.8516L582.719 33.8516L600.174 87.958L617.838 33.8516Z" fill="white"/>
<path d="M335.766 598.044H307.307L302.19 619H278.146L307.868 521.861H335.766L365.488 619H340.884L335.766 598.044ZM310.952 581.364H331.981L321.467 538.401L310.952 581.364Z" fill="white"/>
<path d="M338.711 386.034H304.152L297.423 409.303H280.88L311.653 312.584H331.841L362.684 409.303H345.44L338.711 386.034ZM307.517 373.489H335.276L321.467 325.199L307.517 373.489Z" fill="white"/>
<path d="M340.463 177.248H302.26L294.549 201.848H282.563L313.966 105.339H329.528L360.931 201.848H348.174L340.463 177.248ZM305.414 167.155H337.309L321.467 115.572L305.414 167.155Z" fill="white"/>
<path d="M862.338 438.248H894.232L900.261 416.031H920.098L889.746 512.96H866.193L835.911 416.031H856.309L862.338 438.248ZM890.797 452.616H865.913L878.32 498.592L890.797 452.616Z" fill="white"/>
<path d="M860.095 232.616H896.686L903.976 208.576H917.925L886.802 305.155H869.278L838.084 208.576H852.805L860.095 232.616ZM893.461 243.759H863.319L878.32 293.941L893.461 243.759Z" fill="white"/>
<path d="M857.922 25.7216L898.999 25.7216L907.481 5.88203e-06L915.892 6.61729e-06L883.998 96.2982H872.152L840.187 0L849.44 8.0878e-07L857.922 25.7216ZM895.985 33.8516L860.866 33.8516L878.32 87.958L895.985 33.8516Z" fill="white"/>
<path d="M892.059 598.044H863.6L858.483 619H834.439L864.16 521.861H892.059L921.78 619H897.176L892.059 598.044ZM867.245 581.364H888.274L877.759 538.401L867.245 581.364Z" fill="white"/>
<path d="M895.003 386.034H860.445L853.716 409.303H837.173L867.946 312.584H888.134L918.977 409.303H901.733L895.003 386.034ZM863.81 373.489H891.568L877.759 325.199L863.81 373.489Z" fill="white"/>
<path d="M896.756 177.248H858.553L850.842 201.848H838.855L870.259 105.339H885.82L917.224 201.848H904.466L896.756 177.248ZM861.707 167.155H893.601L877.759 115.572L861.707 167.155Z" fill="white"/>
<path d="M306.045 438.248H337.939L343.968 416.031H363.805L333.453 512.96H309.9L279.618 416.031H300.017L306.045 438.248ZM334.505 452.616H309.62L322.027 498.592L334.505 452.616Z" fill="white"/>
<path d="M303.802 232.616H340.393L347.683 208.576H361.632L330.509 305.155H312.985L281.791 208.576H296.512L303.802 232.616ZM337.168 243.759H307.026L322.027 293.941L337.168 243.759Z" fill="white"/>
<path d="M301.629 25.7216L342.706 25.7216L351.188 5.88203e-06L359.6 6.61729e-06L327.705 96.2982H315.859L283.894 0L293.147 8.0878e-07L301.629 25.7216ZM339.692 33.8516L304.573 33.8516L322.027 87.958L339.692 33.8516Z" fill="white"/>
<path d="M196.693 598.044H168.234L163.117 619H139.073L168.794 521.861H196.693L226.415 619H201.81L196.693 598.044ZM171.879 581.364H192.908L182.393 538.401L171.879 581.364Z" fill="white"/>
<path d="M199.637 386.034H165.079L158.35 409.303H141.807L172.58 312.584H192.768L223.611 409.303H206.367L199.637 386.034ZM168.444 373.489H196.203L182.393 325.199L168.444 373.489Z" fill="white"/>
<path d="M201.39 177.248H163.187L155.476 201.848H143.489L174.893 105.339H190.455L221.858 201.848H209.1L201.39 177.248ZM166.341 167.155H198.235L182.393 115.572L166.341 167.155Z" fill="white"/>
<path d="M1001.41 438.248H1033.31L1039.33 416.031H1059.17L1028.82 512.96H1005.27L974.984 416.031H995.383L1001.41 438.248ZM1029.87 452.616H1004.99L1017.39 498.592L1029.87 452.616Z" fill="white"/>
<path d="M999.168 232.616H1035.76L1043.05 208.576H1057L1025.88 305.155H1008.35L977.157 208.576H991.878L999.168 232.616ZM1032.53 243.759H1002.39L1017.39 293.941L1032.53 243.759Z" fill="white"/>
<path d="M996.995 25.7216L1038.07 25.7216L1046.55 5.88203e-06L1054.97 6.61729e-06L1023.07 96.2982H1011.22L979.26 0L988.513 8.0878e-07L996.995 25.7216ZM1035.06 33.8516L999.939 33.8516L1017.39 87.958L1035.06 33.8516Z" fill="white"/>
<path d="M752.986 598.044H724.526L719.409 619H695.366L725.087 521.861H752.986L782.707 619H758.103L752.986 598.044ZM728.171 581.364H749.201L738.686 538.401L728.171 581.364Z" fill="white"/>
<path d="M755.93 386.034H721.372L714.643 409.303H698.1L728.872 312.584H749.061L779.903 409.303H762.659L755.93 386.034ZM724.737 373.489H752.495L738.686 325.199L724.737 373.489Z" fill="white"/>
<path d="M757.682 177.248H719.479L711.769 201.848H699.782L731.186 105.339H746.747L778.151 201.848H765.393L757.682 177.248ZM722.634 167.155H754.528L738.686 115.572L722.634 167.155Z" fill="white"/>
<path d="M445.118 438.248H477.013L483.041 416.031H502.879L472.526 512.96H448.974L418.692 416.031H439.09L445.118 438.248ZM473.578 452.616H448.693L461.101 498.592L473.578 452.616Z" fill="white"/>
<path d="M442.875 232.616H479.466L486.756 208.576H500.706L469.582 305.155H452.058L420.865 208.576H435.585L442.875 232.616ZM476.242 243.759H446.1L461.101 293.941L476.242 243.759Z" fill="white"/>
<path d="M440.702 25.7216L481.779 25.7216L490.261 5.88203e-06L498.673 6.61729e-06L466.778 96.2982H454.932L422.968 0L432.22 8.0878e-07L440.702 25.7216ZM478.765 33.8516L443.646 33.8516L461.101 87.958L478.765 33.8516Z" fill="white"/>
<path d="M474.84 598.044H446.38L441.263 619H417.22L446.941 521.861H474.84L504.561 619H479.957L474.84 598.044ZM450.025 581.364H471.054L460.54 538.401L450.025 581.364Z" fill="white"/>
<path d="M477.784 386.034H443.226L436.496 409.303H419.953L450.726 312.584H470.914L501.757 409.303H484.513L477.784 386.034ZM446.59 373.489H474.349L460.54 325.199L446.59 373.489Z" fill="white"/>
<path d="M479.536 177.248H441.333L433.622 201.848H421.636L453.039 105.339H468.601L500.005 201.848H487.247L479.536 177.248ZM444.487 167.155H476.382L460.54 115.572L444.487 167.155Z" fill="white"/>
<path d="M723.265 438.248H755.159L761.187 416.031H781.025L750.673 512.96H727.12L696.838 416.031H717.236L723.265 438.248ZM751.724 452.616H726.84L739.247 498.592L751.724 452.616Z" fill="white"/>
<path d="M721.022 232.616H757.612L764.903 208.576H778.852L747.729 305.155H730.204L699.011 208.576H713.731L721.022 232.616ZM754.388 243.759H724.246L739.247 293.941L754.388 243.759Z" fill="white"/>
<path d="M718.849 25.7216L759.926 25.7216L768.407 5.88203e-06L776.819 6.61729e-06L744.925 96.2982H733.078L701.114 0L710.367 8.0878e-07L718.849 25.7216ZM756.911 33.8516L721.793 33.8516L739.247 87.958L756.911 33.8516Z" fill="white"/>
<path d="M1031.13 598.044H1002.67L997.556 619H973.512L1003.23 521.861H1031.13L1060.85 619H1036.25L1031.13 598.044ZM1006.32 581.364H1027.35L1016.83 538.401L1006.32 581.364Z" fill="white"/>
<path d="M1034.08 386.034H999.518L992.789 409.303H976.246L1007.02 312.584H1027.21L1058.05 409.303H1040.81L1034.08 386.034ZM1002.88 373.489H1030.64L1016.83 325.199L1002.88 373.489Z" fill="white"/>
<path d="M1035.83 177.248H997.626L989.915 201.848H977.928L1009.33 105.339H1024.89L1056.3 201.848H1043.54L1035.83 177.248ZM1000.78 167.155H1032.67L1016.83 115.572L1000.78 167.155Z" fill="white"/>
<path d="M166.972 438.248H198.866L204.895 416.031H224.732L194.38 512.96H170.827L140.545 416.031H160.944L166.972 438.248ZM195.431 452.616H170.547L182.954 498.592L195.431 452.616Z" fill="white"/>
<path d="M164.729 232.616H201.32L208.61 208.576H222.559L191.436 305.155H173.912L142.718 208.576H157.439L164.729 232.616ZM198.095 243.759H167.953L182.954 293.941L198.095 243.759Z" fill="white"/>
<path d="M162.556 25.7216L203.633 25.7216L212.115 5.88203e-06L220.526 6.61729e-06L188.632 96.2982H176.786L144.821 0L154.074 8.0878e-07L162.556 25.7216ZM200.619 33.8516L165.5 33.8516L182.954 87.958L200.619 33.8516Z" fill="white"/>
<path d="M1170.21 598.044H1141.75L1136.63 619H1112.59L1142.31 521.861H1170.21L1199.93 619H1175.32L1170.21 598.044ZM1145.39 581.364H1166.42L1155.91 538.401L1145.39 581.364Z" fill="white"/>
<path d="M1309.28 598.044H1280.82L1275.7 619H1251.66L1281.38 521.861H1309.28L1339 619H1314.4L1309.28 598.044ZM1284.46 581.364H1305.49L1294.98 538.401L1284.46 581.364Z" fill="white"/>
<path d="M1173.15 386.034H1138.59L1131.86 409.303H1115.32L1146.09 312.584H1166.28L1197.12 409.303H1179.88L1173.15 386.034ZM1141.96 373.489H1169.71L1155.91 325.199L1141.96 373.489Z" fill="white"/>
<path d="M1312.22 386.034H1277.66L1270.94 409.303H1254.39L1285.17 312.584H1305.35L1336.2 409.303H1318.95L1312.22 386.034ZM1281.03 373.489H1308.79L1294.98 325.199L1281.03 373.489Z" fill="white"/>
<path d="M1174.9 177.248H1136.7L1128.99 201.848H1117L1148.41 105.339H1163.97L1195.37 201.848H1182.61L1174.9 177.248ZM1139.85 167.155H1171.75L1155.91 115.572L1139.85 167.155Z" fill="white"/>
<path d="M1313.98 177.248H1275.77L1268.06 201.848H1256.07L1287.48 105.339H1303.04L1334.44 201.848H1321.69L1313.98 177.248ZM1278.93 167.155H1310.82L1294.98 115.572L1278.93 167.155Z" fill="white"/>
<path d="M27.8988 438.248H59.7931L65.8214 416.031H85.659L55.3068 512.96H31.7541L1.47205 416.031H21.8704L27.8988 438.248ZM56.3583 452.616H31.4737L43.881 498.592L56.3583 452.616Z" fill="white"/>
<path d="M25.6556 232.616H62.2465L69.5366 208.576H83.486L52.3627 305.155H34.8384L3.64507 208.576H18.3655L25.6556 232.616ZM59.022 243.759H28.8801L43.881 293.941L59.022 243.759Z" fill="white"/>
<path d="M23.4826 25.7216L64.5597 25.7216L73.0415 5.88203e-06L81.4532 6.61729e-06L49.5588 96.2982H37.7124L5.74799 0L15.0008 8.0878e-07L23.4826 25.7216ZM61.5455 33.8516L26.4267 33.8516L43.881 87.958L61.5455 33.8516Z" fill="white"/>
<path d="M99.1177 542.396H127.577L132.694 521.44H156.738L127.016 618.579H99.1177L69.3964 521.44H94.0006L99.1177 542.396ZM123.932 559.076H102.903L113.418 602.039L123.932 559.076Z" fill="white"/>
<path d="M96.1736 335.011H130.732L137.461 311.743H154.004L123.231 408.462H103.043L72.2003 311.743H89.4442L96.1736 335.011ZM127.367 347.557H99.6084L113.418 395.846L127.367 347.557Z" fill="white"/>
<path d="M94.4212 128.888L132.624 128.888L140.335 104.288H152.322L120.918 200.797H105.356L73.9527 104.288H86.7104L94.4212 128.888ZM129.47 138.981L97.5756 138.981L113.418 190.564L129.47 138.981Z" fill="white"/>
<path d="M1102.35 491.373H1070.46L1064.43 513.591H1044.59L1074.94 416.662H1098.5L1128.78 513.591H1108.38L1102.35 491.373ZM1073.89 477.006H1098.78L1086.37 431.029L1073.89 477.006Z" fill="white"/>
<path d="M1241.42 491.373H1209.53L1203.5 513.591H1183.66L1214.02 416.662H1237.57L1267.85 513.591H1247.45L1241.42 491.373ZM1212.96 477.006H1237.85L1225.44 431.029L1212.96 477.006Z" fill="white"/>
<path d="M1104.59 282.096H1068L1060.71 306.136H1046.76L1077.89 209.557H1095.41L1126.6 306.136H1111.88L1104.59 282.096ZM1071.23 270.953H1101.37L1086.37 220.771L1071.23 270.953Z" fill="white"/>
<path d="M1243.67 282.096H1207.08L1199.79 306.136H1185.84L1216.96 209.557H1234.48L1265.68 306.136H1250.96L1243.67 282.096ZM1210.3 270.953H1240.44L1225.44 220.771L1210.3 270.953Z" fill="white"/>
<path d="M1106.77 71.8382H1065.69L1057.21 97.5598H1048.8L1080.69 1.26155H1092.54L1124.5 97.5598H1115.25L1106.77 71.8382ZM1068.7 63.7082H1103.82L1086.37 9.60179L1068.7 63.7082Z" fill="white"/>
<path d="M1245.84 71.8382H1204.76L1196.28 97.5598H1187.87L1219.76 1.26155H1231.61L1263.58 97.5598H1254.32L1245.84 71.8382ZM1207.78 63.7082H1242.9L1225.44 9.60179L1207.78 63.7082Z" fill="white"/>
<path d="M655.41 542.396H683.87L688.987 521.44H713.03L683.309 618.579H655.41L625.689 521.44H650.293L655.41 542.396ZM680.225 559.076H659.196L669.71 602.039L680.225 559.076Z" fill="white"/>
<path d="M652.466 335.011H687.024L693.754 311.743H710.297L679.524 408.462H659.336L628.493 311.743H645.737L652.466 335.011ZM683.66 347.557H655.901L669.71 395.846L683.66 347.557Z" fill="white"/>
<path d="M650.714 128.888L688.917 128.888L696.628 104.288H708.614L677.211 200.797H661.649L630.245 104.288H643.003L650.714 128.888ZM685.763 138.981L653.868 138.981L669.71 190.564L685.763 138.981Z" fill="white"/>
<path d="M546.059 491.373H514.164L508.136 513.591H488.298L518.65 416.662H542.203L572.485 513.591H552.087L546.059 491.373ZM517.599 477.006H542.484L530.076 431.029L517.599 477.006Z" fill="white"/>
<path d="M548.302 282.096H511.711L504.421 306.136H490.471L521.595 209.557H539.119L570.312 306.136H555.592L548.302 282.096ZM514.935 270.953H545.077L530.076 220.771L514.935 270.953Z" fill="white"/>
<path d="M550.475 71.8382H509.398L500.916 97.5598H492.504L524.398 1.26155H536.245L568.209 97.5598H558.956L550.475 71.8382ZM512.412 63.7082H547.531L530.076 9.60179L512.412 63.7082Z" fill="white"/>
<path d="M377.264 542.396H405.724L410.841 521.44H434.884L405.163 618.579H377.264L347.543 521.44H372.147L377.264 542.396ZM402.079 559.076H381.049L391.564 602.039L402.079 559.076Z" fill="white"/>
<path d="M374.32 335.011H408.878L415.607 311.743H432.15L401.378 408.462H381.19L350.347 311.743H367.591L374.32 335.011ZM405.513 347.557H377.755L391.564 395.846L405.513 347.557Z" fill="white"/>
<path d="M372.568 128.888L410.771 128.888L418.481 104.288H430.468L399.064 200.797H383.503L352.099 104.288H364.857L372.568 128.888ZM407.616 138.981L375.722 138.981L391.564 190.564L407.616 138.981Z" fill="white"/>
<path d="M824.205 491.373H792.311L786.282 513.591H766.445L796.797 416.662H820.35L850.632 513.591H830.233L824.205 491.373ZM795.745 477.006H820.63L808.223 431.029L795.745 477.006Z" fill="white"/>
<path d="M826.448 282.096H789.857L782.567 306.136H768.618L799.741 209.557H817.265L848.459 306.136H833.738L826.448 282.096ZM793.082 270.953H823.224L808.223 220.771L793.082 270.953Z" fill="white"/>
<path d="M828.621 71.8382H787.544L779.062 97.5598H770.651L802.545 1.26155H814.391L846.356 97.5598H837.103L828.621 71.8382ZM790.558 63.7082H825.677L808.223 9.60179L790.558 63.7082Z" fill="white"/>
<path d="M933.557 542.396H962.016L967.133 521.44H991.177L961.456 618.579H933.557L903.836 521.44H928.44L933.557 542.396ZM958.371 559.076H937.342L947.857 602.039L958.371 559.076Z" fill="white"/>
<path d="M930.613 335.011H965.171L971.9 311.743H988.443L957.67 408.462H937.482L906.639 311.743H923.883L930.613 335.011ZM961.806 347.557H934.047L947.857 395.846L961.806 347.557Z" fill="white"/>
<path d="M928.86 128.888L967.063 128.888L974.774 104.288H986.761L955.357 200.797H939.795L908.392 104.288H921.15L928.86 128.888ZM963.909 138.981L932.015 138.981L947.857 190.564L963.909 138.981Z" fill="white"/>
<path d="M267.912 491.373H236.018L229.989 513.591H210.152L240.504 416.662H264.057L294.339 513.591H273.941L267.912 491.373ZM239.453 477.006H264.337L251.93 431.029L239.453 477.006Z" fill="white"/>
<path d="M270.155 282.096H233.564L226.274 306.136H212.325L243.448 209.557H260.973L292.166 306.136H277.445L270.155 282.096ZM236.789 270.953H266.931L251.93 220.771L236.789 270.953Z" fill="white"/>
<path d="M272.328 71.8382H231.251L222.769 97.5598H214.358L246.252 1.26155H258.099L290.063 97.5598H280.81L272.328 71.8382ZM234.265 63.7082H269.384L251.93 9.60179L234.265 63.7082Z" fill="white"/>
<path d="M238.191 542.396H266.65L271.767 521.44H295.811L266.09 618.579H238.191L208.47 521.44H233.074L238.191 542.396ZM263.005 559.076H241.976L252.491 602.039L263.005 559.076Z" fill="white"/>
<path d="M235.247 335.011H269.805L276.534 311.743H293.077L262.304 408.462H242.116L211.273 311.743H228.517L235.247 335.011ZM266.44 347.557H238.682L252.491 395.846L266.44 347.557Z" fill="white"/>
<path d="M233.494 128.888L271.697 128.888L279.408 104.288H291.395L259.991 200.797H244.43L213.026 104.288H225.784L233.494 128.888ZM268.543 138.981L236.649 138.981L252.491 190.564L268.543 138.981Z" fill="white"/>
<path d="M963.278 491.373H931.384L925.355 513.591H905.518L935.87 416.662H959.423L989.705 513.591H969.306L963.278 491.373ZM934.819 477.006H959.703L947.296 431.029L934.819 477.006Z" fill="white"/>
<path d="M965.521 282.096H928.93L921.64 306.136H907.691L938.814 209.557H956.338L987.532 306.136H972.811L965.521 282.096ZM932.155 270.953H962.297L947.296 220.771L932.155 270.953Z" fill="white"/>
<path d="M967.694 71.8382H926.617L918.135 97.5598H909.724L941.618 1.26155H953.464L985.429 97.5598H976.176L967.694 71.8382ZM929.631 63.7082H964.75L947.296 9.60179L929.631 63.7082Z" fill="white"/>
<path d="M794.484 542.396H822.943L828.06 521.44H852.104L822.382 618.579H794.484L764.762 521.44H789.367L794.484 542.396ZM819.298 559.076H798.269L808.783 602.039L819.298 559.076Z" fill="white"/>
<path d="M791.54 335.011H826.098L832.827 311.743H849.37L818.597 408.462H798.409L767.566 311.743H784.81L791.54 335.011ZM822.733 347.557H794.974L808.783 395.846L822.733 347.557Z" fill="white"/>
<path d="M789.787 128.888L827.99 128.888L835.701 104.288H847.688L816.284 200.797H800.722L769.319 104.288H782.076L789.787 128.888ZM824.836 138.981L792.941 138.981L808.783 190.564L824.836 138.981Z" fill="white"/>
<path d="M406.985 491.373H375.091L369.063 513.591H349.225L379.577 416.662H403.13L433.412 513.591H413.014L406.985 491.373ZM378.526 477.006H403.41L391.003 431.029L378.526 477.006Z" fill="white"/>
<path d="M409.228 282.096H372.638L365.348 306.136H351.398L382.521 209.557H400.046L431.239 306.136H416.519L409.228 282.096ZM375.862 270.953H406.004L391.003 220.771L375.862 270.953Z" fill="white"/>
<path d="M411.401 71.8382H370.324L361.843 97.5598H353.431L385.325 1.26155H397.172L429.136 97.5598H419.883L411.401 71.8382ZM373.339 63.7082H408.457L391.003 9.60179L373.339 63.7082Z" fill="white"/>
<path d="M516.337 542.396H544.797L549.914 521.44H573.957L544.236 618.579H516.337L486.616 521.44H511.22L516.337 542.396ZM541.152 559.076H520.122L530.637 602.039L541.152 559.076Z" fill="white"/>
<path d="M513.393 335.011H547.951L554.681 311.743H571.223L540.451 408.462H520.263L489.42 311.743H506.664L513.393 335.011ZM544.586 347.557H516.828L530.637 395.846L544.586 347.557Z" fill="white"/>
<path d="M511.641 128.888L549.844 128.888L557.554 104.288H569.541L538.138 200.797H522.576L491.172 104.288H503.93L511.641 128.888ZM546.689 138.981L514.795 138.981L530.637 190.564L546.689 138.981Z" fill="white"/>
<path d="M685.132 491.373H653.237L647.209 513.591H627.371L657.724 416.662H681.276L711.558 513.591H691.16L685.132 491.373ZM656.672 477.006H681.557L669.15 431.029L656.672 477.006Z" fill="white"/>
<path d="M687.375 282.096H650.784L643.494 306.136H629.544L660.668 209.557H678.192L709.385 306.136H694.665L687.375 282.096ZM654.008 270.953H684.15L669.15 220.771L654.008 270.953Z" fill="white"/>
<path d="M689.548 71.8382H648.471L639.989 97.5598H631.577L663.472 1.26155H675.318L707.282 97.5598H698.03L689.548 71.8382ZM651.485 63.7082H686.604L669.15 9.60179L651.485 63.7082Z" fill="white"/>
<path d="M1072.63 542.396H1101.09L1106.21 521.44H1130.25L1100.53 618.579H1072.63L1042.91 521.44H1067.51L1072.63 542.396ZM1097.44 559.076H1076.42L1086.93 602.039L1097.44 559.076Z" fill="white"/>
<path d="M1211.7 542.396H1240.16L1245.28 521.44H1269.32L1239.6 618.579H1211.7L1181.98 521.44H1206.59L1211.7 542.396ZM1236.52 559.076H1215.49L1226 602.039L1236.52 559.076Z" fill="white"/>
<path d="M1069.69 335.011H1104.24L1110.97 311.743H1127.52L1096.74 408.462H1076.56L1045.71 311.743H1062.96L1069.69 335.011ZM1100.88 347.557H1073.12L1086.93 395.846L1100.88 347.557Z" fill="white"/>
<path d="M1208.76 335.011H1243.32L1250.05 311.743H1266.59L1235.82 408.462H1215.63L1184.79 311.743H1202.03L1208.76 335.011ZM1239.95 347.557H1212.19L1226 395.846L1239.95 347.557Z" fill="white"/>
<path d="M1067.93 128.888L1106.14 128.888L1113.85 104.288H1125.83L1094.43 200.797H1078.87L1047.47 104.288H1060.22L1067.93 128.888ZM1102.98 138.981L1071.09 138.981L1086.93 190.564L1102.98 138.981Z" fill="white"/>
<path d="M1207.01 128.888L1245.21 128.888L1252.92 104.288H1264.91L1233.5 200.797H1217.94L1186.54 104.288H1199.3L1207.01 128.888ZM1242.06 138.981L1210.16 138.981L1226 190.564L1242.06 138.981Z" fill="white"/>
<path d="M128.839 491.373H96.9447L90.9163 513.591H71.0787L101.431 416.662H124.984L155.266 513.591H134.867L128.839 491.373ZM100.379 477.006H125.264L112.857 431.029L100.379 477.006Z" fill="white"/>
<path d="M131.082 282.096H94.4913L87.2011 306.136H73.2518L104.375 209.557H121.899L153.093 306.136H138.372L131.082 282.096ZM97.7157 270.953H127.858L112.857 220.771L97.7157 270.953Z" fill="white"/>
<path d="M133.255 71.8382H92.1781L83.6963 97.5598H75.2846L107.179 1.26155H119.025L150.99 97.5598H141.737L133.255 71.8382ZM95.1922 63.7082H130.311L112.857 9.60179L95.1922 63.7082Z" fill="white"/>
</svg>
