<svg width="130" height="172" viewBox="0 0 130 172" fill="none" xmlns="http://www.w3.org/2000/svg">
<path d="M0 0H92.1172L129.121 34.6423V171.637H0V0Z" fill="white"/>
<path d="M51.9217 78.6514H30.9217V74.2714H51.9217V78.6514ZM51.9217 90.0514H30.9217V85.6714H51.9217V90.0514ZM38.9917 63.8914L42.7117 67.0714L38.9617 71.1514C38.5017 71.6714 37.9917 72.2014 37.4317 72.7414C36.8917 73.2614 36.1717 73.7714 35.2717 74.2714L32.1817 78.6514L28.9717 82.1614L32.1817 85.6714L35.2717 90.0514C36.1717 90.5514 36.8917 91.0614 37.4317 91.5814C37.9917 92.1014 38.5017 92.6314 38.9617 93.1714L42.7117 97.2514L38.9917 100.431L22.6717 82.1614L38.9917 63.8914Z" fill="#1F1F1F"/>
<path d="M46.4982 78.6514V74.2714H83.6982V78.6514H46.4982ZM46.4982 90.0514V85.6714H83.6982V90.0514H46.4982Z" fill="#1F1F1F"/>
<path d="M78.2748 78.6514V74.2714H99.2748V78.6514H78.2748ZM78.2748 90.0514V85.6714H99.2748V90.0514H78.2748ZM91.2048 63.8914L107.525 82.1614L91.2048 100.431L87.4848 97.2514L91.2348 93.1714C91.6948 92.6314 92.1948 92.1014 92.7348 91.5814C93.2948 91.0614 94.0248 90.5514 94.9248 90.0514L98.0148 85.6714L101.225 82.1614L98.0148 78.6514L94.9248 74.2714C94.0248 73.7714 93.2948 73.2614 92.7348 72.7414C92.1948 72.2014 91.6948 71.6714 91.2348 71.1514L87.4848 67.0714L91.2048 63.8914Z" fill="#1F1F1F"/>
</svg>
