<svg width="1325" height="186" viewBox="0 0 1325 186" fill="none" xmlns="http://www.w3.org/2000/svg">
<path d="M848.127 19.0002C843.433 19.0002 839.627 15.1946 839.627 10.5002C839.627 5.80576 843.433 2.00018 848.127 2.00018C852.822 2.00018 856.627 5.80576 856.627 10.5002C856.627 15.1946 852.822 19.0002 848.127 19.0002Z" fill="white" fill-opacity="0.95"/>
<path d="M769.132 19.0002C764.438 19.0002 760.632 15.1946 760.632 10.5002C760.632 5.80576 764.438 2.00018 769.132 2.00018C773.827 2.00018 777.632 5.80576 777.632 10.5002C777.632 15.1946 773.827 19.0002 769.132 19.0002Z" fill="white" fill-opacity="0.95"/>
<path d="M878.22 185.408L741.05 185.408V140.748H758.16L758.16 163.803L861.11 163.803V140.748H878.22L878.22 185.408Z" fill="white"/>
<path d="M740.55 43.5917L877.72 43.5917V88.2517H860.61V65.1967L757.66 65.1967V88.2517H740.55V43.5917Z" fill="white"/>
<path d="M699.127 17.0002C694.432 17.0002 690.627 13.1946 690.627 8.5002C690.627 3.80578 694.432 0.000195725 699.127 0.000195931C703.821 0.000196136 707.627 3.80578 707.627 8.5002C707.627 13.1946 703.821 17.0002 699.127 17.0002Z" fill="white" fill-opacity="0.95"/>
<path d="M620.132 17.0002C615.438 17.0002 611.632 13.1946 611.632 8.5002C611.632 3.80578 615.438 0.000196087 620.132 0.000196292C624.827 0.000196498 628.632 3.80578 628.632 8.5002C628.632 13.1946 624.827 17.0002 620.132 17.0002Z" fill="white" fill-opacity="0.95"/>
<path d="M728.858 136.959L592.413 136.959V95.271H607.13V118.906L714.068 118.906V95.2711L728.858 95.2711V136.959Z" fill="white"/>
<path d="M591.913 43.0417L728.358 43.0417V84.7292H713.64V61.0942L606.703 61.0942V84.7292H591.913V43.0417Z" fill="white"/>
<path d="M1000.12 18C995.43 18 991.625 14.1945 991.625 9.50005C991.625 4.80563 995.43 1.00005 1000.12 1.00005C1004.82 1.00005 1008.62 4.80563 1008.62 9.50005C1008.62 14.1945 1004.82 18 1000.12 18Z" fill="white" fill-opacity="0.95"/>
<path d="M921.13 18C916.436 18 912.63 14.1945 912.63 9.50004C912.63 4.80562 916.436 1.00005 921.13 1.00005C925.825 1.00005 929.63 4.80563 929.63 9.50005C929.63 14.1945 925.825 18 921.13 18Z" fill="white" fill-opacity="0.95"/>
<path d="M1026.86 138.958L890.41 138.958L890.411 97.2707L905.128 97.2707V120.906L1012.07 120.906V97.2707H1026.86V138.958Z" fill="white"/>
<path d="M889.911 44.0416L1026.36 44.0417V85.7292L1011.64 85.7291V62.0942L904.701 62.0941V85.7291H889.911V44.0416Z" fill="white"/>
<path d="M548.127 17C543.432 17 539.627 13.1944 539.627 8.50003C539.627 3.80561 543.432 2.73145e-05 548.127 2.75197e-05C552.821 2.77249e-05 556.627 3.80561 556.627 8.50003C556.627 13.1944 552.821 17 548.127 17Z" fill="white" fill-opacity="0.95"/>
<path d="M469.133 17C464.438 17 460.633 13.1944 460.633 8.50003C460.633 3.80561 464.438 2.76763e-05 469.133 2.78815e-05C473.827 2.80867e-05 477.633 3.80561 477.633 8.50003C477.633 13.1944 473.827 17 469.133 17Z" fill="white" fill-opacity="0.95"/>
<path d="M579.495 136.871L443.775 136.871V97.3585H456.608V121.574L566.518 121.574V97.3585H579.495L579.495 136.871Z" fill="white"/>
<path d="M443.275 43.1292L578.995 43.1292V82.6417H566.163L566.163 58.4267L456.253 58.4267V82.6417H443.275V43.1292Z" fill="white"/>
<path d="M1148.12 19.0001C1143.43 19.0001 1139.62 15.1945 1139.62 10.5001C1139.62 5.8057 1143.43 2.00012 1148.12 2.00012C1152.82 2.00012 1156.62 5.8057 1156.62 10.5001C1156.62 15.1945 1152.82 19.0001 1148.12 19.0001Z" fill="white" fill-opacity="0.95"/>
<path d="M1069.13 19.0001C1064.44 19.0001 1060.63 15.1945 1060.63 10.5001C1060.63 5.80569 1064.44 2.00011 1069.13 2.00011C1073.82 2.00011 1077.63 5.80569 1077.63 10.5001C1077.63 15.1945 1073.82 19.0001 1069.13 19.0001Z" fill="white" fill-opacity="0.95"/>
<path d="M1175.49 138.871L1039.77 138.871V99.3582L1052.61 99.3582V123.573L1162.52 123.573V99.3582H1175.49V138.871Z" fill="white"/>
<path d="M1039.27 44.1291L1174.99 44.1292V83.6417L1162.16 83.6416V59.4267L1052.25 59.4266L1052.25 83.6416H1039.27V44.1291Z" fill="white"/>
<path d="M401.127 17.0002C396.432 17.0002 392.627 13.1947 392.627 8.50025C392.627 3.80583 396.432 0.000246465 401.127 0.00024667C405.821 0.000246875 409.627 3.80583 409.627 8.50025C409.627 13.1947 405.821 17.0002 401.127 17.0002Z" fill="white" fill-opacity="0.95"/>
<path d="M323.133 17.0002C318.438 17.0002 314.633 13.1947 314.633 8.50025C314.633 3.80583 318.438 0.00024687 323.133 0.000247076C327.827 0.000247281 331.633 3.80583 331.633 8.50025C331.633 13.1947 327.827 17.0002 323.133 17.0002Z" fill="white" fill-opacity="0.95"/>
<path d="M431.278 135.001L295.993 135.001L295.993 97.301H307.376L307.376 121.879L419.751 121.879V97.3011H431.278V135.001Z" fill="white"/>
<path d="M295.493 42.9992L430.778 42.9992V80.6992H419.396L419.396 56.1217L307.021 56.1217V80.6992H295.493V42.9992Z" fill="white"/>
<path d="M1294.12 20.0002C1289.43 20.0002 1285.62 16.1946 1285.62 11.5002C1285.62 6.80577 1289.43 3.00019 1294.12 3.00019C1298.82 3.00019 1302.62 6.80577 1302.62 11.5002C1302.62 16.1946 1298.82 20.0002 1294.12 20.0002Z" fill="white" fill-opacity="0.95"/>
<path d="M1215.13 20.0002C1210.44 20.0002 1206.63 16.1946 1206.63 11.5002C1206.63 6.80577 1210.44 3.00019 1215.13 3.00019C1219.82 3.00019 1223.63 6.80577 1223.63 11.5002C1223.63 16.1946 1219.82 20.0002 1215.13 20.0002Z" fill="white" fill-opacity="0.95"/>
<path d="M1324.28 139.001L1188.99 139.001V101.301H1200.37V125.878L1312.75 125.878V101.301H1324.28V139.001Z" fill="white"/>
<path d="M1188.49 43.9991L1323.78 43.9992V81.6992H1312.39V57.1217L1200.02 57.1216V81.6991H1188.49V43.9991Z" fill="white"/>
<path d="M256.127 17.0002C251.433 17.0002 247.627 13.1946 247.627 8.50015C247.627 3.80573 251.433 0.000152854 256.127 0.000153059C260.821 0.000153264 264.627 3.80573 264.627 8.50015C264.627 13.1946 260.821 17.0002 256.127 17.0002Z" fill="white" fill-opacity="0.95"/>
<path d="M177.133 17.0001C172.438 17.0001 168.633 13.1946 168.633 8.50015C168.633 3.80573 172.438 0.000149401 177.133 0.000149606C181.827 0.000149811 185.633 3.80573 185.633 8.50015C185.633 13.1946 181.827 17.0001 177.133 17.0001Z" fill="white" fill-opacity="0.95"/>
<path d="M284.133 135.349L149.138 135.349L149.138 99.026H159.433L159.433 123.821L273.62 123.821V99.026H284.133V135.349Z" fill="white"/>
<path d="M148.638 42.6517L283.633 42.6517V78.9742H273.338V54.1792L159.15 54.1791L159.15 78.9742H148.638L148.638 42.6517Z" fill="white"/>
<path d="M107.126 17C102.432 17 98.6264 13.1944 98.6264 8.5C98.6264 3.80558 102.432 3.24775e-06 107.126 3.45295e-06C111.821 3.65815e-06 115.626 3.80558 115.626 8.5C115.626 13.1944 111.821 17 107.126 17Z" fill="white" fill-opacity="0.95"/>
<path d="M28.132 17C23.4376 17 19.632 13.1944 19.632 8.5C19.632 3.80558 23.4376 -2.052e-07 28.132 0C32.8264 2.052e-07 36.632 3.80558 36.632 8.5C36.632 13.1944 32.8264 17 28.132 17Z" fill="white" fill-opacity="0.95"/>
<path d="M134.77 134.116L0.499976 134.116L0.499984 100.258H8.76498L8.76498 125.633L126.287 125.634L126.287 100.259H134.77L134.77 134.116Z" fill="white"/>
<path d="M4.43987e-06 41.8841L134.27 41.8842V75.7417H126.005V50.3667L8.4825 50.3666L8.4825 75.7416H0L4.43987e-06 41.8841Z" fill="white"/>
</svg>
