<svg width="1348" height="144" viewBox="0 0 1348 144" fill="none" xmlns="http://www.w3.org/2000/svg">
<path d="M134.48 82.056C129.786 82.056 125.98 78.2505 125.98 73.556C125.98 68.8616 129.786 65.056 134.48 65.056C139.175 65.056 142.98 68.8616 142.98 73.556C142.98 78.2505 139.175 82.056 134.48 82.056Z" fill="white" fill-opacity="0.95"/>
<path d="M69.4862 82.0559C64.7918 82.0559 60.9862 78.2503 60.9862 73.5559C60.9862 68.8614 64.7918 65.0559 69.4862 65.0559C74.1807 65.0559 77.9862 68.8614 77.9862 73.5559C77.9862 78.2503 74.1807 82.0559 69.4862 82.0559Z" fill="white" fill-opacity="0.95"/>
<path d="M47.27 141.23C43.9833 141.23 40.6242 140.916 37.1925 140.288C33.7125 139.659 30.5467 138.572 27.695 137.025C24.795 135.478 22.5717 133.303 21.025 130.5C19.43 127.745 18.8742 124.193 19.3575 119.842L22.5475 90.1175C22.8858 86.9275 22.5233 84.1725 21.46 81.8525C20.3483 79.5325 18.125 77.7442 14.79 76.4875C11.4067 75.2308 6.47667 74.6025 0 74.6025L6.21139e-07 67.4975C6.47667 67.4975 11.4067 66.845 14.79 65.54C18.125 64.2833 20.3483 62.4708 21.46 60.1025C22.5233 57.7825 22.8858 55.0275 22.5475 51.8375L19.3575 22.185C18.9225 17.8833 19.5025 14.355 21.0975 11.6C22.6442 8.79666 24.8433 6.62166 27.695 5.075C30.5467 3.52833 33.7125 2.44083 37.1925 1.8125C40.6242 1.18417 43.9833 0.869999 47.27 0.869999V8.555C43.5483 8.555 40.1408 8.9175 37.0475 9.6425C33.9542 10.3675 31.5375 11.6242 29.7975 13.4125C28.0092 15.2008 27.2842 17.6658 27.6225 20.8075L30.885 53.07C31.2717 57.0333 31.1267 60.2233 30.45 62.64C29.7733 65.0567 28.4442 66.8933 26.4625 68.15C24.4325 69.455 21.5808 70.3492 17.9075 70.8325C21.2908 71.4608 23.9975 72.5 26.0275 73.95C28.0575 75.4483 29.4592 77.43 30.2325 79.895C31.0058 82.36 31.2233 85.405 30.885 89.03L27.6225 121.292C27.2842 124.386 28.0092 126.827 29.7975 128.615C31.5375 130.403 33.9542 131.66 37.0475 132.385C40.0925 133.158 43.5 133.545 47.27 133.545V141.23Z" fill="white"/>
<path d="M154.697 2.36968C157.983 2.36968 161.342 2.68384 164.774 3.31218C168.254 3.94051 171.42 5.02801 174.272 6.57467C177.172 8.12134 179.395 10.2963 180.942 13.0997C182.537 15.8547 183.092 19.4072 182.609 23.7572L179.419 53.4822C179.081 56.6722 179.443 59.4272 180.507 61.7472C181.618 64.0672 183.842 65.8555 187.177 67.1122C190.56 68.3689 195.49 68.9972 201.967 68.9972V76.1022C195.49 76.1022 190.56 76.7547 187.177 78.0597C183.842 79.3163 181.618 81.1289 180.507 83.4972C179.443 85.8172 179.081 88.5722 179.419 91.7622L182.609 121.415C183.044 125.716 182.464 129.245 180.869 132C179.322 134.803 177.123 136.978 174.272 138.525C171.42 140.071 168.254 141.159 164.774 141.787C161.342 142.416 157.983 142.73 154.697 142.73V135.045C158.418 135.045 161.826 134.682 164.919 133.957C168.012 133.232 170.429 131.976 172.169 130.187C173.957 128.399 174.682 125.934 174.344 122.792L171.082 90.5297C170.695 86.5664 170.84 83.3763 171.517 80.9597C172.193 78.543 173.522 76.7064 175.504 75.4497C177.534 74.1447 180.386 73.2505 184.059 72.7672C180.676 72.1388 177.969 71.0997 175.939 69.6497C173.909 68.1513 172.507 66.1697 171.734 63.7047C170.961 61.2397 170.743 58.1947 171.082 54.5697L174.344 22.3072C174.682 19.2139 173.957 16.773 172.169 14.9847C170.429 13.1963 168.012 11.9397 164.919 11.2147C161.874 10.4413 158.467 10.0547 154.697 10.0547V2.36968Z" fill="white"/>
<path d="M819.48 82.056C814.786 82.056 810.98 78.2505 810.98 73.556C810.98 68.8616 814.786 65.056 819.48 65.056C824.175 65.056 827.98 68.8616 827.98 73.556C827.98 78.2505 824.175 82.056 819.48 82.056Z" fill="white" fill-opacity="0.95"/>
<path d="M754.486 82.0559C749.792 82.0559 745.986 78.2503 745.986 73.5559C745.986 68.8614 749.792 65.0559 754.486 65.0559C759.181 65.0559 762.986 68.8614 762.986 73.5559C762.986 78.2503 759.181 82.0559 754.486 82.0559Z" fill="white" fill-opacity="0.95"/>
<path d="M733.72 141.665C728.693 141.665 724.15 141.254 720.09 140.433C715.982 139.659 712.526 138.354 709.722 136.518C706.871 134.681 704.792 132.192 703.487 129.05C702.182 125.957 701.796 122.114 702.328 117.523L705.01 92.4375C705.348 89.0058 704.841 86.1783 703.487 83.955C702.086 81.78 699.766 80.1608 696.528 79.0975C693.289 78.0825 689.06 77.575 683.84 77.575V64.525C689.06 64.525 693.289 63.9933 696.528 62.93C699.766 61.8667 702.086 60.2233 703.487 58C704.841 55.825 705.348 53.0217 705.01 49.59L702.328 24.65C701.844 20.01 702.255 16.1192 703.56 12.9775C704.817 9.83583 706.871 7.37083 709.723 5.5825C712.526 3.74583 715.982 2.44083 720.09 1.6675C724.15 0.845832 728.693 0.434998 733.72 0.434999V12.3975C730.433 12.3975 727.509 12.7117 724.948 13.34C722.338 13.92 720.356 15.0075 719.003 16.6025C717.601 18.1492 717.045 20.3 717.335 23.055L720.018 49.6625C720.501 54.3992 720.138 58.2175 718.93 61.1175C717.673 64.0175 715.619 66.2167 712.768 67.715C709.916 69.2617 706.339 70.3492 702.037 70.9775C706.339 71.6542 709.916 72.79 712.768 74.385C715.619 76.0283 717.673 78.3 718.93 81.2C720.138 84.1 720.501 87.8458 720.018 92.4375L717.335 119.045C717.045 121.8 717.601 123.951 719.003 125.498C720.356 127.044 722.313 128.132 724.875 128.76C727.437 129.388 730.385 129.702 733.72 129.702V141.665Z" fill="white"/>
<path d="M838.247 1.93468C843.273 1.93468 847.817 2.34551 851.877 3.16718C855.985 3.94051 859.441 5.24551 862.244 7.08218C865.096 8.91885 867.174 11.408 868.479 14.5497C869.784 17.643 870.171 21.4855 869.639 26.0772L866.957 51.1622C866.618 54.5938 867.126 57.4214 868.479 59.6447C869.881 61.8197 872.201 63.4388 875.439 64.5022C878.677 65.5172 882.907 66.0247 888.127 66.0247V79.0747C882.907 79.0747 878.677 79.6064 875.439 80.6697C872.201 81.733 869.881 83.3763 868.479 85.5997C867.126 87.7747 866.618 90.578 866.957 94.0097L869.639 118.95C870.122 123.59 869.712 127.481 868.407 130.622C867.15 133.764 865.096 136.229 862.244 138.017C859.441 139.854 855.985 141.159 851.877 141.932C847.817 142.754 843.273 143.165 838.247 143.165V131.202C841.533 131.202 844.457 130.888 847.019 130.26C849.629 129.68 851.611 128.592 852.964 126.997C854.366 125.451 854.922 123.3 854.632 120.545L851.949 93.9372C851.466 89.2005 851.828 85.3822 853.037 82.4822C854.293 79.5822 856.347 77.383 859.199 75.8847C862.051 74.338 865.627 73.2505 869.929 72.6222C865.627 71.9455 862.051 70.8097 859.199 69.2147C856.347 67.5714 854.293 65.2997 853.037 62.3997C851.828 59.4997 851.466 55.7538 851.949 51.1622L854.632 24.5547C854.922 21.7997 854.366 19.6488 852.964 18.1022C851.611 16.5555 849.653 15.468 847.092 14.8397C844.53 14.2113 841.582 13.8972 838.247 13.8972V1.93468Z" fill="white"/>
<path d="M364.48 82.056C359.786 82.056 355.98 78.2505 355.98 73.556C355.98 68.8616 359.786 65.056 364.48 65.056C369.175 65.056 372.98 68.8616 372.98 73.556C372.98 78.2505 369.175 82.056 364.48 82.056Z" fill="white" fill-opacity="0.95"/>
<path d="M299.486 82.0559C294.792 82.0559 290.986 78.2503 290.986 73.5559C290.986 68.8614 294.792 65.0559 299.486 65.0559C304.181 65.0559 307.986 68.8614 307.986 73.5559C307.986 78.2503 304.181 82.0559 299.486 82.0559Z" fill="white" fill-opacity="0.95"/>
<path d="M277.922 141.448C273.862 141.448 269.972 141.085 266.25 140.36C262.528 139.683 259.242 138.499 256.39 136.808C253.538 135.116 251.387 132.796 249.938 129.848C248.439 126.948 247.956 123.274 248.488 118.828L251.387 91.1325C251.774 87.8458 251.363 85.0667 250.155 82.795C248.898 80.5233 246.627 78.8075 243.34 77.6475C240.053 76.4875 235.438 75.9075 229.493 75.9075V66.1925C235.389 66.1925 240.005 65.5883 243.34 64.38C246.627 63.22 248.898 61.5042 250.155 59.2325C251.363 56.9608 251.774 54.1575 251.387 50.8225L248.488 23.2725C248.004 18.8258 248.488 15.1525 249.938 12.2525C251.388 9.30416 253.538 6.98416 256.39 5.2925C259.193 3.60083 262.48 2.41666 266.25 1.74C269.972 1.015 273.863 0.652498 277.923 0.652498V10.2225C274.394 10.2225 271.204 10.5608 268.353 11.2375C265.453 11.9142 263.205 13.0983 261.61 14.79C260.015 16.4817 259.362 18.8258 259.652 21.8225L262.698 51.5475C263.133 55.8492 262.891 59.305 261.973 61.915C261.054 64.5733 259.411 66.6033 257.043 68.005C254.626 69.4067 251.46 70.3733 247.545 70.905C251.315 71.5333 254.408 72.6208 256.825 74.1675C259.193 75.7142 260.861 77.8167 261.828 80.475C262.794 83.1333 263.084 86.4925 262.698 90.5525L259.652 120.278C259.362 123.226 260.015 125.546 261.61 127.238C263.205 128.929 265.428 130.113 268.28 130.79C271.132 131.515 274.346 131.878 277.922 131.878V141.448Z" fill="white"/>
<path d="M384.044 2.15218C388.104 2.15218 391.995 2.51468 395.717 3.23967C399.438 3.91634 402.725 5.10051 405.577 6.79218C408.428 8.48385 410.579 10.8038 412.029 13.7522C413.527 16.6522 414.011 20.3255 413.479 24.7722L410.579 52.4672C410.192 55.7538 410.603 58.533 411.812 60.8047C413.068 63.0763 415.34 64.7922 418.627 65.9522C421.913 67.1122 426.529 67.6922 432.474 67.6922V77.4072C426.577 77.4072 421.962 78.0113 418.627 79.2197C415.34 80.3797 413.068 82.0955 411.812 84.3672C410.603 86.6389 410.192 89.4422 410.579 92.7772L413.479 120.327C413.962 124.774 413.479 128.447 412.029 131.347C410.579 134.296 408.428 136.616 405.577 138.307C402.773 139.999 399.487 141.183 395.717 141.86C391.995 142.585 388.104 142.947 384.044 142.947V133.377C387.572 133.377 390.762 133.039 393.614 132.362C396.514 131.686 398.762 130.501 400.357 128.81C401.952 127.118 402.604 124.774 402.314 121.777L399.269 92.0522C398.834 87.7505 399.076 84.2947 399.994 81.6847C400.912 79.0264 402.556 76.9963 404.924 75.5947C407.341 74.193 410.507 73.2264 414.422 72.6947C410.652 72.0664 407.558 70.9788 405.142 69.4322C402.773 67.8855 401.106 65.783 400.139 63.1247C399.172 60.4663 398.882 57.1072 399.269 53.0472L402.314 23.3222C402.604 20.3738 401.952 18.0538 400.357 16.3622C398.762 14.6705 396.538 13.4863 393.687 12.8097C390.835 12.0847 387.621 11.7222 384.044 11.7222V2.15218Z" fill="white"/>
<path d="M1047.48 82.056C1042.79 82.056 1038.98 78.2505 1038.98 73.556C1038.98 68.8616 1042.79 65.056 1047.48 65.056C1052.17 65.056 1055.98 68.8616 1055.98 73.556C1055.98 78.2505 1052.17 82.056 1047.48 82.056Z" fill="white" fill-opacity="0.95"/>
<path d="M982.486 82.0559C977.792 82.0559 973.986 78.2503 973.986 73.5559C973.986 68.8614 977.792 65.0559 982.486 65.0559C987.181 65.0559 990.986 68.8614 990.986 73.5559C990.986 78.2503 987.181 82.0559 982.486 82.0559Z" fill="white" fill-opacity="0.95"/>
<path d="M962.3 141.883C956.548 141.883 951.522 141.448 947.22 140.577C942.918 139.707 939.366 138.282 936.562 136.3C933.759 134.367 931.753 131.781 930.545 128.542C929.337 125.304 928.998 121.317 929.53 116.58L931.922 93.38C932.309 89.8517 931.753 87 930.255 84.825C928.757 82.6983 926.437 81.1517 923.295 80.185C920.105 79.2667 916.118 78.8075 911.333 78.8075V63.2925C916.069 63.2925 920.032 62.8092 923.222 61.8425C926.412 60.9242 928.757 59.3775 930.255 57.2025C931.753 55.0758 932.309 52.2242 931.922 48.6475L929.53 25.5925C928.998 20.8075 929.337 16.7958 930.545 13.5575C931.705 10.3192 933.687 7.73333 936.49 5.8C939.293 3.81833 942.87 2.3925 947.22 1.5225C951.522 0.652499 956.548 0.217499 962.3 0.217499V13.92C959.158 13.92 956.403 14.21 954.035 14.79C951.667 15.37 949.878 16.4092 948.67 17.9075C947.413 19.3575 946.906 21.3875 947.148 23.9975L949.685 48.285C950.217 53.36 949.757 57.42 948.307 60.465C946.809 63.5583 944.465 65.9267 941.275 67.57C938.085 69.2133 934.218 70.3492 929.675 70.9775C934.363 71.7025 938.302 72.8867 941.492 74.53C944.682 76.2217 946.978 78.6142 948.38 81.7075C949.782 84.8008 950.217 88.8367 949.685 93.815L947.148 118.103C946.906 120.761 947.413 122.815 948.67 124.265C949.878 125.715 951.667 126.73 954.035 127.31C956.403 127.89 959.158 128.18 962.3 128.18V141.883Z" fill="white"/>
<path d="M1065.67 1.71718C1071.42 1.71718 1076.44 2.15218 1080.75 3.02218C1085.05 3.89218 1088.6 5.31802 1091.4 7.29968C1094.21 9.23301 1096.21 11.8188 1097.42 15.0572C1098.63 18.2955 1098.97 22.283 1098.44 27.0197L1096.04 50.2197C1095.66 53.748 1096.21 56.5997 1097.71 58.7747C1099.21 60.9013 1101.53 62.448 1104.67 63.4147C1107.86 64.333 1111.85 64.7922 1116.63 64.7922V80.3072C1111.9 80.3072 1107.93 80.7905 1104.74 81.7572C1101.55 82.6755 1099.21 84.2222 1097.71 86.3972C1096.21 88.5239 1095.66 91.3755 1096.04 94.9522L1098.44 118.007C1098.97 122.792 1098.63 126.804 1097.42 130.042C1096.26 133.281 1094.28 135.866 1091.48 137.8C1088.67 139.781 1085.1 141.207 1080.75 142.077C1076.44 142.947 1071.42 143.382 1065.67 143.382V129.68C1068.81 129.68 1071.56 129.39 1073.93 128.81C1076.3 128.23 1078.09 127.191 1079.3 125.692C1080.55 124.242 1081.06 122.212 1080.82 119.602L1078.28 95.3147C1077.75 90.2397 1078.21 86.1797 1079.66 83.1347C1081.16 80.0413 1083.5 77.673 1086.69 76.0297C1089.88 74.3864 1093.75 73.2505 1098.29 72.6222C1093.6 71.8972 1089.66 70.713 1086.47 69.0697C1083.28 67.378 1080.99 64.9855 1079.59 61.8922C1078.19 58.7988 1077.75 54.763 1078.28 49.7847L1080.82 25.4972C1081.06 22.8388 1080.55 20.7847 1079.3 19.3347C1078.09 17.8847 1076.3 16.8697 1073.93 16.2897C1071.56 15.7097 1068.81 15.4197 1065.67 15.4197V1.71718Z" fill="white"/>
<path d="M592.48 82.056C587.786 82.056 583.98 78.2505 583.98 73.556C583.98 68.8616 587.786 65.056 592.48 65.056C597.175 65.056 600.98 68.8616 600.98 73.556C600.98 78.2505 597.175 82.056 592.48 82.056Z" fill="white" fill-opacity="0.95"/>
<path d="M527.486 82.0559C522.792 82.0559 518.986 78.2503 518.986 73.5559C518.986 68.8614 522.792 65.0559 527.486 65.0559C532.181 65.0559 535.986 68.8614 535.986 73.5559C535.986 78.2503 532.181 82.0559 527.486 82.0559Z" fill="white" fill-opacity="0.95"/>
<path d="M506.285 141.52C501.79 141.52 497.609 141.133 493.742 140.36C489.876 139.635 486.517 138.403 483.665 136.663C480.813 134.923 478.711 132.554 477.357 129.558C475.956 126.561 475.497 122.791 475.98 118.248L478.807 91.7125C479.146 88.3292 478.687 85.5258 477.43 83.3025C476.125 81.0792 473.853 79.4117 470.615 78.3C467.328 77.1883 462.858 76.6325 457.203 76.6325V65.4675C462.809 65.4675 467.256 64.8875 470.543 63.7275C473.829 62.6158 476.125 60.9242 477.43 58.6525C478.687 56.4292 479.146 53.65 478.807 50.315L475.98 23.8525C475.497 19.3092 475.956 15.5392 477.358 12.5425C478.711 9.54583 480.813 7.1775 483.665 5.4375C486.468 3.64916 489.828 2.3925 493.743 1.6675C497.609 0.942498 501.79 0.579998 506.285 0.579999V11.165C502.805 11.165 499.712 11.5033 497.005 12.18C494.25 12.8083 492.123 13.9442 490.625 15.5875C489.127 17.2308 488.523 19.4783 488.812 22.33L491.712 50.75C492.147 55.245 491.833 58.8458 490.77 61.5525C489.707 64.3075 487.894 66.41 485.332 67.86C482.771 69.31 479.436 70.325 475.328 70.905C479.339 71.5817 482.65 72.6933 485.26 74.24C487.822 75.835 489.658 78.01 490.77 80.765C491.833 83.52 492.147 87.0483 491.712 91.35L488.812 119.77C488.523 122.622 489.127 124.845 490.625 126.44C492.123 128.083 494.25 129.243 497.005 129.92C499.712 130.597 502.805 130.935 506.285 130.935V141.52Z" fill="white"/>
<path d="M611.682 2.07968C616.177 2.07968 620.357 2.46635 624.224 3.23967C628.091 3.96468 631.45 5.19718 634.302 6.93718C637.153 8.67718 639.256 11.0455 640.609 14.0422C642.011 17.0388 642.47 20.8088 641.987 25.3522L639.159 51.8872C638.821 55.2705 639.28 58.0739 640.537 60.2972C641.842 62.5205 644.113 64.188 647.352 65.2997C650.638 66.4113 655.109 66.9672 660.764 66.9672V78.1322C655.157 78.1322 650.711 78.7122 647.424 79.8722C644.137 80.9839 641.842 82.6755 640.537 84.9472C639.28 87.1705 638.821 89.9497 639.159 93.2847L641.987 119.747C642.47 124.291 642.011 128.061 640.609 131.057C639.256 134.054 637.153 136.422 634.302 138.162C631.498 139.951 628.139 141.207 624.224 141.932C620.357 142.657 616.177 143.02 611.682 143.02V132.435C615.162 132.435 618.255 132.096 620.962 131.42C623.717 130.791 625.843 129.656 627.342 128.012C628.84 126.369 629.444 124.121 629.154 121.27L626.254 92.8497C625.819 88.3547 626.133 84.7538 627.197 82.0472C628.26 79.2922 630.072 77.1897 632.634 75.7397C635.196 74.2897 638.531 73.2747 642.639 72.6947C638.627 72.018 635.317 70.9063 632.707 69.3597C630.145 67.7647 628.308 65.5897 627.197 62.8347C626.133 60.0797 625.819 56.5513 626.254 52.2497L629.154 23.8297C629.444 20.978 628.84 18.7547 627.342 17.1597C625.843 15.5163 623.717 14.3563 620.962 13.6797C618.255 13.003 615.162 12.6647 611.682 12.6647V2.07968Z" fill="white"/>
<path d="M1277.48 82.056C1272.79 82.056 1268.98 78.2505 1268.98 73.556C1268.98 68.8616 1272.79 65.056 1277.48 65.056C1282.17 65.056 1285.98 68.8616 1285.98 73.556C1285.98 78.2505 1282.17 82.056 1277.48 82.056Z" fill="white" fill-opacity="0.95"/>
<path d="M1212.49 82.0559C1207.79 82.0559 1203.99 78.2503 1203.99 73.5559C1203.99 68.8614 1207.79 65.0559 1212.49 65.0559C1217.18 65.0559 1220.99 68.8614 1220.99 73.5559C1220.99 78.2503 1217.18 82.0559 1212.49 82.0559Z" fill="white" fill-opacity="0.95"/>
<path d="M1193.1 142.1C1186.43 142.1 1180.77 141.617 1176.13 140.65C1171.49 139.683 1167.8 138.137 1165.04 136.01C1162.24 133.932 1160.3 131.177 1159.24 127.745C1158.18 124.362 1157.91 120.229 1158.44 115.348L1160.62 94.6125C1161 90.9392 1160.38 88.0633 1158.73 85.985C1157.09 83.9067 1154.72 82.4325 1151.63 81.5625C1148.49 80.7408 1144.86 80.33 1140.75 80.33V61.77C1144.81 61.77 1148.41 61.335 1151.56 60.465C1154.7 59.6433 1157.09 58.1933 1158.73 56.115C1160.38 54.0367 1161 51.1608 1160.62 47.4875L1158.44 26.8975C1157.91 21.9192 1158.18 17.7142 1159.24 14.2825C1160.25 10.8508 1162.16 8.09583 1164.97 6.0175C1167.72 3.89083 1171.44 2.36833 1176.13 1.45C1180.77 0.483332 1186.43 -5.83109e-07 1193.1 0V15.95C1190.15 15.95 1187.64 16.2158 1185.56 16.7475C1183.43 17.2308 1181.86 18.1492 1180.84 19.5025C1179.78 20.8558 1179.37 22.7408 1179.61 25.1575L1181.86 46.545C1182.44 52.0067 1181.86 56.3808 1180.12 59.6675C1178.33 63.0025 1175.63 65.54 1172 67.28C1168.38 69.0683 1164.12 70.325 1159.24 71.05C1164.41 71.8233 1168.81 73.08 1172.44 74.82C1176.01 76.56 1178.62 79.0733 1180.27 82.36C1181.91 85.695 1182.44 90.0933 1181.86 95.555L1179.61 116.943C1179.37 119.408 1179.78 121.293 1180.84 122.598C1181.86 123.951 1183.43 124.869 1185.56 125.353C1187.64 125.884 1190.15 126.15 1193.1 126.15V142.1Z" fill="white"/>
<path d="M1294.87 1.49968C1301.54 1.49968 1307.19 1.98301 1311.83 2.94968C1316.47 3.91634 1320.17 5.46301 1322.93 7.58968C1325.73 9.66801 1327.66 12.423 1328.73 15.8547C1329.79 19.238 1330.06 23.3705 1329.52 28.2522L1327.35 48.9872C1326.96 52.6605 1327.59 55.5363 1329.23 57.6147C1330.88 59.693 1333.25 61.1672 1336.34 62.0372C1339.48 62.8588 1343.11 63.2697 1347.21 63.2697V81.8297C1343.15 81.8297 1339.55 82.2647 1336.41 83.1347C1333.27 83.9563 1330.88 85.4063 1329.23 87.4847C1327.59 89.563 1326.96 92.4388 1327.35 96.1122L1329.52 116.702C1330.06 121.681 1329.79 125.886 1328.73 129.317C1327.71 132.749 1325.8 135.504 1323 137.582C1320.24 139.709 1316.52 141.231 1311.83 142.15C1307.19 143.116 1301.54 143.6 1294.87 143.6V127.65C1297.82 127.65 1300.33 127.384 1302.41 126.852C1304.54 126.369 1306.11 125.451 1307.12 124.097C1308.18 122.744 1308.6 120.859 1308.35 118.442L1306.11 97.0547C1305.53 91.593 1306.11 87.2188 1307.85 83.9322C1309.64 80.5972 1312.34 78.0597 1315.97 76.3197C1319.59 74.5314 1323.85 73.2747 1328.73 72.5497C1323.56 71.7764 1319.16 70.5197 1315.53 68.7797C1311.95 67.0397 1309.34 64.5263 1307.7 61.2397C1306.06 57.9047 1305.53 53.5063 1306.11 48.0447L1308.35 26.6572C1308.6 24.1922 1308.18 22.3072 1307.12 21.0022C1306.11 19.6489 1304.54 18.7305 1302.41 18.2472C1300.33 17.7155 1297.82 17.4497 1294.87 17.4497V1.49968Z" fill="white"/>
</svg>
