<svg width="130" height="172" viewBox="0 0 130 172" fill="none" xmlns="http://www.w3.org/2000/svg">
<path d="M0 0H92.1172L129.121 34.6423V171.637H0V0Z" fill="white"/>
<path d="M83.8167 74.5188V78.8988H46.7367V74.5188H83.8167ZM83.8167 85.9188V90.2988H46.7367V85.9188H83.8167ZM23.5467 64.1388L39.8667 82.4088L23.5467 100.679L19.8267 97.4988L33.5667 82.4088L19.8267 67.3188L23.5467 64.1388ZM52.3167 78.8988H45.9267L35.3667 67.3188L39.1167 64.1388L52.3167 78.8988ZM52.3167 85.9188L39.1167 100.679L35.3667 97.4988L45.9267 85.9188H52.3167Z" fill="#1F1F1F"/>
<path d="M78.3933 78.8988V74.5188H107.523V78.8988H78.3933ZM78.3933 90.2988V85.9188H107.523V90.2988H78.3933Z" fill="#1F1F1F"/>
</svg>
