<svg width="86" height="86" viewBox="0 0 86 86" fill="none" xmlns="http://www.w3.org/2000/svg">
<path d="M86 0H0V86H86V0Z" fill="white"/>
<path d="M30.2159 4.64868H27.8916V6.97301H30.2159V4.64868Z" fill="black"/>
<path d="M32.5401 4.64868H30.2158V6.97301H32.5401V4.64868Z" fill="black"/>
<path d="M44.1622 4.64868H41.8379V6.97301H44.1622V4.64868Z" fill="black"/>
<path d="M48.8107 4.64868H46.4863V6.97301H48.8107V4.64868Z" fill="black"/>
<path d="M51.1349 4.64868H48.8105V6.97301H51.1349V4.64868Z" fill="black"/>
<path d="M53.4591 4.64868H51.1348V6.97301H53.4591V4.64868Z" fill="black"/>
<path d="M55.7833 4.64868H53.459V6.97301H55.7833V4.64868Z" fill="black"/>
<path d="M60.4317 4.64868H58.1074V6.97301H60.4317V4.64868Z" fill="black"/>
<path d="M62.7569 4.64868H60.4326V6.97301H62.7569V4.64868Z" fill="black"/>
<path d="M32.5401 6.97302H30.2158V9.29735H32.5401V6.97302Z" fill="black"/>
<path d="M41.838 6.97302H39.5137V9.29735H41.838V6.97302Z" fill="black"/>
<path d="M44.1622 6.97302H41.8379V9.29735H44.1622V6.97302Z" fill="black"/>
<path d="M48.8107 6.97302H46.4863V9.29735H48.8107V6.97302Z" fill="black"/>
<path d="M55.7833 6.97302H53.459V9.29735H55.7833V6.97302Z" fill="black"/>
<path d="M25.5675 9.29736H23.2432V11.6217H25.5675V9.29736Z" fill="black"/>
<path d="M30.2159 9.29736H27.8916V11.6217H30.2159V9.29736Z" fill="black"/>
<path d="M32.5401 9.29736H30.2158V11.6217H32.5401V9.29736Z" fill="black"/>
<path d="M34.8644 9.29736H32.54V11.6217H34.8644V9.29736Z" fill="black"/>
<path d="M39.5138 9.29736H37.1895V11.6217H39.5138V9.29736Z" fill="black"/>
<path d="M51.1349 9.29736H48.8105V11.6217H51.1349V9.29736Z" fill="black"/>
<path d="M53.4591 9.29736H51.1348V11.6217H53.4591V9.29736Z" fill="black"/>
<path d="M55.7833 9.29736H53.459V11.6217H55.7833V9.29736Z" fill="black"/>
<path d="M58.1075 9.29736H55.7832V11.6217H58.1075V9.29736Z" fill="black"/>
<path d="M60.4317 9.29736H58.1074V11.6217H60.4317V9.29736Z" fill="black"/>
<path d="M62.7569 9.29736H60.4326V11.6217H62.7569V9.29736Z" fill="black"/>
<path d="M25.5675 11.6217H23.2432V13.946H25.5675V11.6217Z" fill="black"/>
<path d="M30.2159 11.6217H27.8916V13.946H30.2159V11.6217Z" fill="black"/>
<path d="M32.5401 11.6217H30.2158V13.946H32.5401V11.6217Z" fill="black"/>
<path d="M41.838 11.6217H39.5137V13.946H41.838V11.6217Z" fill="black"/>
<path d="M48.8107 11.6217H46.4863V13.946H48.8107V11.6217Z" fill="black"/>
<path d="M51.1349 11.6217H48.8105V13.946H51.1349V11.6217Z" fill="black"/>
<path d="M55.7833 11.6217H53.459V13.946H55.7833V11.6217Z" fill="black"/>
<path d="M62.7569 11.6217H60.4326V13.946H62.7569V11.6217Z" fill="black"/>
<path d="M25.5675 13.9459H23.2432V16.2702H25.5675V13.9459Z" fill="black"/>
<path d="M32.5401 13.9459H30.2158V16.2702H32.5401V13.9459Z" fill="black"/>
<path d="M37.1886 13.9459H34.8643V16.2702H37.1886V13.9459Z" fill="black"/>
<path d="M39.5138 13.9459H37.1895V16.2702H39.5138V13.9459Z" fill="black"/>
<path d="M41.838 13.9459H39.5137V16.2702H41.838V13.9459Z" fill="black"/>
<path d="M44.1622 13.9459H41.8379V16.2702H44.1622V13.9459Z" fill="black"/>
<path d="M53.4591 13.9459H51.1348V16.2702H53.4591V13.9459Z" fill="black"/>
<path d="M58.1075 13.9459H55.7832V16.2702H58.1075V13.9459Z" fill="black"/>
<path d="M25.5675 16.2703H23.2432V18.5946H25.5675V16.2703Z" fill="black"/>
<path d="M34.8644 16.2703H32.54V18.5946H34.8644V16.2703Z" fill="black"/>
<path d="M46.4864 16.2703H44.1621V18.5946H46.4864V16.2703Z" fill="black"/>
<path d="M48.8107 16.2703H46.4863V18.5946H48.8107V16.2703Z" fill="black"/>
<path d="M51.1349 16.2703H48.8105V18.5946H51.1349V16.2703Z" fill="black"/>
<path d="M58.1075 16.2703H55.7832V18.5946H58.1075V16.2703Z" fill="black"/>
<path d="M60.4317 16.2703H58.1074V18.5946H60.4317V16.2703Z" fill="black"/>
<path d="M62.7569 16.2703H60.4326V18.5946H62.7569V16.2703Z" fill="black"/>
<path d="M25.5675 18.5946H23.2432V20.9189H25.5675V18.5946Z" fill="black"/>
<path d="M30.2159 18.5946H27.8916V20.9189H30.2159V18.5946Z" fill="black"/>
<path d="M34.8644 18.5946H32.54V20.9189H34.8644V18.5946Z" fill="black"/>
<path d="M39.5138 18.5946H37.1895V20.9189H39.5138V18.5946Z" fill="black"/>
<path d="M44.1622 18.5946H41.8379V20.9189H44.1622V18.5946Z" fill="black"/>
<path d="M48.8107 18.5946H46.4863V20.9189H48.8107V18.5946Z" fill="black"/>
<path d="M53.4591 18.5946H51.1348V20.9189H53.4591V18.5946Z" fill="black"/>
<path d="M58.1075 18.5946H55.7832V20.9189H58.1075V18.5946Z" fill="black"/>
<path d="M62.7569 18.5946H60.4326V20.9189H62.7569V18.5946Z" fill="black"/>
<path d="M25.5675 20.9189H23.2432V23.2433H25.5675V20.9189Z" fill="black"/>
<path d="M27.8917 20.9189H25.5674V23.2433H27.8917V20.9189Z" fill="black"/>
<path d="M30.2159 20.9189H27.8916V23.2433H30.2159V20.9189Z" fill="black"/>
<path d="M32.5401 20.9189H30.2158V23.2433H32.5401V20.9189Z" fill="black"/>
<path d="M34.8644 20.9189H32.54V23.2433H34.8644V20.9189Z" fill="black"/>
<path d="M39.5138 20.9189H37.1895V23.2433H39.5138V20.9189Z" fill="black"/>
<path d="M44.1622 20.9189H41.8379V23.2433H44.1622V20.9189Z" fill="black"/>
<path d="M51.1349 20.9189H48.8105V23.2433H51.1349V20.9189Z" fill="black"/>
<path d="M53.4591 20.9189H51.1348V23.2433H53.4591V20.9189Z" fill="black"/>
<path d="M55.7833 20.9189H53.459V23.2433H55.7833V20.9189Z" fill="black"/>
<path d="M60.4317 20.9189H58.1074V23.2433H60.4317V20.9189Z" fill="black"/>
<path d="M6.97276 23.2433H4.64844V25.5676H6.97276V23.2433Z" fill="black"/>
<path d="M11.6212 23.2433H9.29688V25.5676H11.6212V23.2433Z" fill="black"/>
<path d="M13.9454 23.2433H11.6211V25.5676H13.9454V23.2433Z" fill="black"/>
<path d="M16.2696 23.2433H13.9453V25.5676H16.2696V23.2433Z" fill="black"/>
<path d="M18.5948 23.2433H16.2705V25.5676H18.5948V23.2433Z" fill="black"/>
<path d="M20.9191 23.2433H18.5947V25.5676H20.9191V23.2433Z" fill="black"/>
<path d="M34.8644 23.2433H32.54V25.5676H34.8644V23.2433Z" fill="black"/>
<path d="M37.1886 23.2433H34.8643V25.5676H37.1886V23.2433Z" fill="black"/>
<path d="M39.5138 23.2433H37.1895V25.5676H39.5138V23.2433Z" fill="black"/>
<path d="M46.4864 23.2433H44.1621V25.5676H46.4864V23.2433Z" fill="black"/>
<path d="M51.1349 23.2433H48.8105V25.5676H51.1349V23.2433Z" fill="black"/>
<path d="M58.1075 23.2433H55.7832V25.5676H58.1075V23.2433Z" fill="black"/>
<path d="M60.4317 23.2433H58.1074V25.5676H60.4317V23.2433Z" fill="black"/>
<path d="M67.4054 23.2433H65.0811V25.5676H67.4054V23.2433Z" fill="black"/>
<path d="M69.7296 23.2433H67.4053V25.5676H69.7296V23.2433Z" fill="black"/>
<path d="M72.0538 23.2433H69.7295V25.5676H72.0538V23.2433Z" fill="black"/>
<path d="M74.378 23.2433H72.0537V25.5676H74.378V23.2433Z" fill="black"/>
<path d="M76.7023 23.2433H74.3779V25.5676H76.7023V23.2433Z" fill="black"/>
<path d="M6.97276 25.5676H4.64844V27.892H6.97276V25.5676Z" fill="black"/>
<path d="M9.29698 25.5676H6.97266V27.892H9.29698V25.5676Z" fill="black"/>
<path d="M16.2696 25.5676H13.9453V27.892H16.2696V25.5676Z" fill="black"/>
<path d="M18.5948 25.5676H16.2705V27.892H18.5948V25.5676Z" fill="black"/>
<path d="M23.2433 25.5676H20.9189V27.892H23.2433V25.5676Z" fill="black"/>
<path d="M25.5675 25.5676H23.2432V27.892H25.5675V25.5676Z" fill="black"/>
<path d="M27.8917 25.5676H25.5674V27.892H27.8917V25.5676Z" fill="black"/>
<path d="M37.1886 25.5676H34.8643V27.892H37.1886V25.5676Z" fill="black"/>
<path d="M44.1622 25.5676H41.8379V27.892H44.1622V25.5676Z" fill="black"/>
<path d="M46.4864 25.5676H44.1621V27.892H46.4864V25.5676Z" fill="black"/>
<path d="M48.8107 25.5676H46.4863V27.892H48.8107V25.5676Z" fill="black"/>
<path d="M51.1349 25.5676H48.8105V27.892H51.1349V25.5676Z" fill="black"/>
<path d="M60.4317 25.5676H58.1074V27.892H60.4317V25.5676Z" fill="black"/>
<path d="M67.4054 25.5676H65.0811V27.892H67.4054V25.5676Z" fill="black"/>
<path d="M69.7296 25.5676H67.4053V27.892H69.7296V25.5676Z" fill="black"/>
<path d="M74.378 25.5676H72.0537V27.892H74.378V25.5676Z" fill="black"/>
<path d="M76.7023 25.5676H74.3779V27.892H76.7023V25.5676Z" fill="black"/>
<path d="M81.3507 25.5676H79.0264V27.892H81.3507V25.5676Z" fill="black"/>
<path d="M6.97276 27.892H4.64844V30.2163H6.97276V27.892Z" fill="black"/>
<path d="M9.29698 27.892H6.97266V30.2163H9.29698V27.892Z" fill="black"/>
<path d="M11.6212 27.892H9.29688V30.2163H11.6212V27.892Z" fill="black"/>
<path d="M20.9191 27.892H18.5947V30.2163H20.9191V27.892Z" fill="black"/>
<path d="M23.2433 27.892H20.9189V30.2163H23.2433V27.892Z" fill="black"/>
<path d="M25.5675 27.892H23.2432V30.2163H25.5675V27.892Z" fill="black"/>
<path d="M27.8917 27.892H25.5674V30.2163H27.8917V27.892Z" fill="black"/>
<path d="M34.8644 27.892H32.54V30.2163H34.8644V27.892Z" fill="black"/>
<path d="M37.1886 27.892H34.8643V30.2163H37.1886V27.892Z" fill="black"/>
<path d="M39.5138 27.892H37.1895V30.2163H39.5138V27.892Z" fill="black"/>
<path d="M41.838 27.892H39.5137V30.2163H41.838V27.892Z" fill="black"/>
<path d="M44.1622 27.892H41.8379V30.2163H44.1622V27.892Z" fill="black"/>
<path d="M46.4864 27.892H44.1621V30.2163H46.4864V27.892Z" fill="black"/>
<path d="M53.4591 27.892H51.1348V30.2163H53.4591V27.892Z" fill="black"/>
<path d="M58.1075 27.892H55.7832V30.2163H58.1075V27.892Z" fill="black"/>
<path d="M62.7569 27.892H60.4326V30.2163H62.7569V27.892Z" fill="black"/>
<path d="M67.4054 27.892H65.0811V30.2163H67.4054V27.892Z" fill="black"/>
<path d="M72.0538 27.892H69.7295V30.2163H72.0538V27.892Z" fill="black"/>
<path d="M76.7023 27.892H74.3779V30.2163H76.7023V27.892Z" fill="black"/>
<path d="M9.29698 30.2163H6.97266V32.5406H9.29698V30.2163Z" fill="black"/>
<path d="M11.6212 30.2163H9.29688V32.5406H11.6212V30.2163Z" fill="black"/>
<path d="M18.5948 30.2163H16.2705V32.5406H18.5948V30.2163Z" fill="black"/>
<path d="M23.2433 30.2163H20.9189V32.5406H23.2433V30.2163Z" fill="black"/>
<path d="M25.5675 30.2163H23.2432V32.5406H25.5675V30.2163Z" fill="black"/>
<path d="M32.5401 30.2163H30.2158V32.5406H32.5401V30.2163Z" fill="black"/>
<path d="M34.8644 30.2163H32.54V32.5406H34.8644V30.2163Z" fill="black"/>
<path d="M37.1886 30.2163H34.8643V32.5406H37.1886V30.2163Z" fill="black"/>
<path d="M41.838 30.2163H39.5137V32.5406H41.838V30.2163Z" fill="black"/>
<path d="M44.1622 30.2163H41.8379V32.5406H44.1622V30.2163Z" fill="black"/>
<path d="M46.4864 30.2163H44.1621V32.5406H46.4864V30.2163Z" fill="black"/>
<path d="M48.8107 30.2163H46.4863V32.5406H48.8107V30.2163Z" fill="black"/>
<path d="M53.4591 30.2163H51.1348V32.5406H53.4591V30.2163Z" fill="black"/>
<path d="M65.0812 30.2163H62.7568V32.5406H65.0812V30.2163Z" fill="black"/>
<path d="M67.4054 30.2163H65.0811V32.5406H67.4054V30.2163Z" fill="black"/>
<path d="M72.0538 30.2163H69.7295V32.5406H72.0538V30.2163Z" fill="black"/>
<path d="M74.378 30.2163H72.0537V32.5406H74.378V30.2163Z" fill="black"/>
<path d="M76.7023 30.2163H74.3779V32.5406H76.7023V30.2163Z" fill="black"/>
<path d="M81.3507 30.2163H79.0264V32.5406H81.3507V30.2163Z" fill="black"/>
<path d="M16.2696 32.5405H13.9453V34.8649H16.2696V32.5405Z" fill="black"/>
<path d="M20.9191 32.5405H18.5947V34.8649H20.9191V32.5405Z" fill="black"/>
<path d="M25.5675 32.5405H23.2432V34.8649H25.5675V32.5405Z" fill="black"/>
<path d="M30.2159 32.5405H27.8916V34.8649H30.2159V32.5405Z" fill="black"/>
<path d="M32.5401 32.5405H30.2158V34.8649H32.5401V32.5405Z" fill="black"/>
<path d="M39.5138 32.5405H37.1895V34.8649H39.5138V32.5405Z" fill="black"/>
<path d="M41.838 32.5405H39.5137V34.8649H41.838V32.5405Z" fill="black"/>
<path d="M44.1622 32.5405H41.8379V34.8649H44.1622V32.5405Z" fill="black"/>
<path d="M53.4591 32.5405H51.1348V34.8649H53.4591V32.5405Z" fill="black"/>
<path d="M55.7833 32.5405H53.459V34.8649H55.7833V32.5405Z" fill="black"/>
<path d="M58.1075 32.5405H55.7832V34.8649H58.1075V32.5405Z" fill="black"/>
<path d="M62.7569 32.5405H60.4326V34.8649H62.7569V32.5405Z" fill="black"/>
<path d="M65.0812 32.5405H62.7568V34.8649H65.0812V32.5405Z" fill="black"/>
<path d="M69.7296 32.5405H67.4053V34.8649H69.7296V32.5405Z" fill="black"/>
<path d="M72.0538 32.5405H69.7295V34.8649H72.0538V32.5405Z" fill="black"/>
<path d="M74.378 32.5405H72.0537V34.8649H74.378V32.5405Z" fill="black"/>
<path d="M79.0265 32.5405H76.7021V34.8649H79.0265V32.5405Z" fill="black"/>
<path d="M81.3507 32.5405H79.0264V34.8649H81.3507V32.5405Z" fill="black"/>
<path d="M6.97276 34.8649H4.64844V37.1892H6.97276V34.8649Z" fill="black"/>
<path d="M9.29698 34.8649H6.97266V37.1892H9.29698V34.8649Z" fill="black"/>
<path d="M16.2696 34.8649H13.9453V37.1892H16.2696V34.8649Z" fill="black"/>
<path d="M23.2433 34.8649H20.9189V37.1892H23.2433V34.8649Z" fill="black"/>
<path d="M25.5675 34.8649H23.2432V37.1892H25.5675V34.8649Z" fill="black"/>
<path d="M27.8917 34.8649H25.5674V37.1892H27.8917V34.8649Z" fill="black"/>
<path d="M30.2159 34.8649H27.8916V37.1892H30.2159V34.8649Z" fill="black"/>
<path d="M34.8644 34.8649H32.54V37.1892H34.8644V34.8649Z" fill="black"/>
<path d="M37.1886 34.8649H34.8643V37.1892H37.1886V34.8649Z" fill="black"/>
<path d="M41.838 34.8649H39.5137V37.1892H41.838V34.8649Z" fill="black"/>
<path d="M46.4864 34.8649H44.1621V37.1892H46.4864V34.8649Z" fill="black"/>
<path d="M48.8107 34.8649H46.4863V37.1892H48.8107V34.8649Z" fill="black"/>
<path d="M55.7833 34.8649H53.459V37.1892H55.7833V34.8649Z" fill="black"/>
<path d="M62.7569 34.8649H60.4326V37.1892H62.7569V34.8649Z" fill="black"/>
<path d="M69.7296 34.8649H67.4053V37.1892H69.7296V34.8649Z" fill="black"/>
<path d="M74.378 34.8649H72.0537V37.1892H74.378V34.8649Z" fill="black"/>
<path d="M79.0265 34.8649H76.7021V37.1892H79.0265V34.8649Z" fill="black"/>
<path d="M81.3507 34.8649H79.0264V37.1892H81.3507V34.8649Z" fill="black"/>
<path d="M9.29698 37.1892H6.97266V39.5135H9.29698V37.1892Z" fill="black"/>
<path d="M11.6212 37.1892H9.29688V39.5135H11.6212V37.1892Z" fill="black"/>
<path d="M13.9454 37.1892H11.6211V39.5135H13.9454V37.1892Z" fill="black"/>
<path d="M20.9191 37.1892H18.5947V39.5135H20.9191V37.1892Z" fill="black"/>
<path d="M23.2433 37.1892H20.9189V39.5135H23.2433V37.1892Z" fill="black"/>
<path d="M32.5401 37.1892H30.2158V39.5135H32.5401V37.1892Z" fill="black"/>
<path d="M37.1886 37.1892H34.8643V39.5135H37.1886V37.1892Z" fill="black"/>
<path d="M39.5138 37.1892H37.1895V39.5135H39.5138V37.1892Z" fill="black"/>
<path d="M41.838 37.1892H39.5137V39.5135H41.838V37.1892Z" fill="black"/>
<path d="M44.1622 37.1892H41.8379V39.5135H44.1622V37.1892Z" fill="black"/>
<path d="M46.4864 37.1892H44.1621V39.5135H46.4864V37.1892Z" fill="black"/>
<path d="M53.4591 37.1892H51.1348V39.5135H53.4591V37.1892Z" fill="black"/>
<path d="M58.1075 37.1892H55.7832V39.5135H58.1075V37.1892Z" fill="black"/>
<path d="M65.0812 37.1892H62.7568V39.5135H65.0812V37.1892Z" fill="black"/>
<path d="M67.4054 37.1892H65.0811V39.5135H67.4054V37.1892Z" fill="black"/>
<path d="M74.378 37.1892H72.0537V39.5135H74.378V37.1892Z" fill="black"/>
<path d="M79.0265 37.1892H76.7021V39.5135H79.0265V37.1892Z" fill="black"/>
<path d="M11.6212 39.5135H9.29688V41.8379H11.6212V39.5135Z" fill="black"/>
<path d="M16.2696 39.5135H13.9453V41.8379H16.2696V39.5135Z" fill="black"/>
<path d="M27.8917 39.5135H25.5674V41.8379H27.8917V39.5135Z" fill="black"/>
<path d="M30.2159 39.5135H27.8916V41.8379H30.2159V39.5135Z" fill="black"/>
<path d="M34.8644 39.5135H32.54V41.8379H34.8644V39.5135Z" fill="black"/>
<path d="M37.1886 39.5135H34.8643V41.8379H37.1886V39.5135Z" fill="black"/>
<path d="M41.838 39.5135H39.5137V41.8379H41.838V39.5135Z" fill="black"/>
<path d="M55.7833 39.5135H53.459V41.8379H55.7833V39.5135Z" fill="black"/>
<path d="M58.1075 39.5135H55.7832V41.8379H58.1075V39.5135Z" fill="black"/>
<path d="M65.0812 39.5135H62.7568V41.8379H65.0812V39.5135Z" fill="black"/>
<path d="M67.4054 39.5135H65.0811V41.8379H67.4054V39.5135Z" fill="black"/>
<path d="M69.7296 39.5135H67.4053V41.8379H69.7296V39.5135Z" fill="black"/>
<path d="M74.378 39.5135H72.0537V41.8379H74.378V39.5135Z" fill="black"/>
<path d="M76.7023 39.5135H74.3779V41.8379H76.7023V39.5135Z" fill="black"/>
<path d="M6.97276 41.8379H4.64844V44.1622H6.97276V41.8379Z" fill="black"/>
<path d="M9.29698 41.8379H6.97266V44.1622H9.29698V41.8379Z" fill="black"/>
<path d="M11.6212 41.8379H9.29688V44.1622H11.6212V41.8379Z" fill="black"/>
<path d="M16.2696 41.8379H13.9453V44.1622H16.2696V41.8379Z" fill="black"/>
<path d="M20.9191 41.8379H18.5947V44.1622H20.9191V41.8379Z" fill="black"/>
<path d="M37.1886 41.8379H34.8643V44.1622H37.1886V41.8379Z" fill="black"/>
<path d="M41.838 41.8379H39.5137V44.1622H41.838V41.8379Z" fill="black"/>
<path d="M46.4864 41.8379H44.1621V44.1622H46.4864V41.8379Z" fill="black"/>
<path d="M58.1075 41.8379H55.7832V44.1622H58.1075V41.8379Z" fill="black"/>
<path d="M65.0812 41.8379H62.7568V44.1622H65.0812V41.8379Z" fill="black"/>
<path d="M69.7296 41.8379H67.4053V44.1622H69.7296V41.8379Z" fill="black"/>
<path d="M72.0538 41.8379H69.7295V44.1622H72.0538V41.8379Z" fill="black"/>
<path d="M76.7023 41.8379H74.3779V44.1622H76.7023V41.8379Z" fill="black"/>
<path d="M81.3507 41.8379H79.0264V44.1622H81.3507V41.8379Z" fill="black"/>
<path d="M6.97276 44.1622H4.64844V46.4866H6.97276V44.1622Z" fill="black"/>
<path d="M11.6212 44.1622H9.29688V46.4866H11.6212V44.1622Z" fill="black"/>
<path d="M27.8917 44.1622H25.5674V46.4866H27.8917V44.1622Z" fill="black"/>
<path d="M30.2159 44.1622H27.8916V46.4866H30.2159V44.1622Z" fill="black"/>
<path d="M34.8644 44.1622H32.54V46.4866H34.8644V44.1622Z" fill="black"/>
<path d="M44.1622 44.1622H41.8379V46.4866H44.1622V44.1622Z" fill="black"/>
<path d="M48.8107 44.1622H46.4863V46.4866H48.8107V44.1622Z" fill="black"/>
<path d="M51.1349 44.1622H48.8105V46.4866H51.1349V44.1622Z" fill="black"/>
<path d="M53.4591 44.1622H51.1348V46.4866H53.4591V44.1622Z" fill="black"/>
<path d="M55.7833 44.1622H53.459V46.4866H55.7833V44.1622Z" fill="black"/>
<path d="M60.4317 44.1622H58.1074V46.4866H60.4317V44.1622Z" fill="black"/>
<path d="M67.4054 44.1622H65.0811V46.4866H67.4054V44.1622Z" fill="black"/>
<path d="M69.7296 44.1622H67.4053V46.4866H69.7296V44.1622Z" fill="black"/>
<path d="M74.378 44.1622H72.0537V46.4866H74.378V44.1622Z" fill="black"/>
<path d="M76.7023 44.1622H74.3779V46.4866H76.7023V44.1622Z" fill="black"/>
<path d="M81.3507 44.1622H79.0264V46.4866H81.3507V44.1622Z" fill="black"/>
<path d="M9.29698 46.4866H6.97266V48.8109H9.29698V46.4866Z" fill="black"/>
<path d="M13.9454 46.4866H11.6211V48.8109H13.9454V46.4866Z" fill="black"/>
<path d="M16.2696 46.4866H13.9453V48.8109H16.2696V46.4866Z" fill="black"/>
<path d="M20.9191 46.4866H18.5947V48.8109H20.9191V46.4866Z" fill="black"/>
<path d="M25.5675 46.4866H23.2432V48.8109H25.5675V46.4866Z" fill="black"/>
<path d="M34.8644 46.4866H32.54V48.8109H34.8644V46.4866Z" fill="black"/>
<path d="M37.1886 46.4866H34.8643V48.8109H37.1886V46.4866Z" fill="black"/>
<path d="M39.5138 46.4866H37.1895V48.8109H39.5138V46.4866Z" fill="black"/>
<path d="M41.838 46.4866H39.5137V48.8109H41.838V46.4866Z" fill="black"/>
<path d="M48.8107 46.4866H46.4863V48.8109H48.8107V46.4866Z" fill="black"/>
<path d="M55.7833 46.4866H53.459V48.8109H55.7833V46.4866Z" fill="black"/>
<path d="M62.7569 46.4866H60.4326V48.8109H62.7569V46.4866Z" fill="black"/>
<path d="M69.7296 46.4866H67.4053V48.8109H69.7296V46.4866Z" fill="black"/>
<path d="M72.0538 46.4866H69.7295V48.8109H72.0538V46.4866Z" fill="black"/>
<path d="M76.7023 46.4866H74.3779V48.8109H76.7023V46.4866Z" fill="black"/>
<path d="M79.0265 46.4866H76.7021V48.8109H79.0265V46.4866Z" fill="black"/>
<path d="M16.2696 48.8108H13.9453V51.1351H16.2696V48.8108Z" fill="black"/>
<path d="M27.8917 48.8108H25.5674V51.1351H27.8917V48.8108Z" fill="black"/>
<path d="M32.5401 48.8108H30.2158V51.1351H32.5401V48.8108Z" fill="black"/>
<path d="M37.1886 48.8108H34.8643V51.1351H37.1886V48.8108Z" fill="black"/>
<path d="M41.838 48.8108H39.5137V51.1351H41.838V48.8108Z" fill="black"/>
<path d="M53.4591 48.8108H51.1348V51.1351H53.4591V48.8108Z" fill="black"/>
<path d="M55.7833 48.8108H53.459V51.1351H55.7833V48.8108Z" fill="black"/>
<path d="M58.1075 48.8108H55.7832V51.1351H58.1075V48.8108Z" fill="black"/>
<path d="M60.4317 48.8108H58.1074V51.1351H60.4317V48.8108Z" fill="black"/>
<path d="M65.0812 48.8108H62.7568V51.1351H65.0812V48.8108Z" fill="black"/>
<path d="M67.4054 48.8108H65.0811V51.1351H67.4054V48.8108Z" fill="black"/>
<path d="M69.7296 48.8108H67.4053V51.1351H69.7296V48.8108Z" fill="black"/>
<path d="M72.0538 48.8108H69.7295V51.1351H72.0538V48.8108Z" fill="black"/>
<path d="M74.378 48.8108H72.0537V51.1351H74.378V48.8108Z" fill="black"/>
<path d="M76.7023 48.8108H74.3779V51.1351H76.7023V48.8108Z" fill="black"/>
<path d="M79.0265 48.8108H76.7021V51.1351H79.0265V48.8108Z" fill="black"/>
<path d="M9.29698 51.1351H6.97266V53.4595H9.29698V51.1351Z" fill="black"/>
<path d="M11.6212 51.1351H9.29688V53.4595H11.6212V51.1351Z" fill="black"/>
<path d="M13.9454 51.1351H11.6211V53.4595H13.9454V51.1351Z" fill="black"/>
<path d="M16.2696 51.1351H13.9453V53.4595H16.2696V51.1351Z" fill="black"/>
<path d="M18.5948 51.1351H16.2705V53.4595H18.5948V51.1351Z" fill="black"/>
<path d="M20.9191 51.1351H18.5947V53.4595H20.9191V51.1351Z" fill="black"/>
<path d="M27.8917 51.1351H25.5674V53.4595H27.8917V51.1351Z" fill="black"/>
<path d="M37.1886 51.1351H34.8643V53.4595H37.1886V51.1351Z" fill="black"/>
<path d="M41.838 51.1351H39.5137V53.4595H41.838V51.1351Z" fill="black"/>
<path d="M48.8107 51.1351H46.4863V53.4595H48.8107V51.1351Z" fill="black"/>
<path d="M51.1349 51.1351H48.8105V53.4595H51.1349V51.1351Z" fill="black"/>
<path d="M55.7833 51.1351H53.459V53.4595H55.7833V51.1351Z" fill="black"/>
<path d="M60.4317 51.1351H58.1074V53.4595H60.4317V51.1351Z" fill="black"/>
<path d="M62.7569 51.1351H60.4326V53.4595H62.7569V51.1351Z" fill="black"/>
<path d="M65.0812 51.1351H62.7568V53.4595H65.0812V51.1351Z" fill="black"/>
<path d="M69.7296 51.1351H67.4053V53.4595H69.7296V51.1351Z" fill="black"/>
<path d="M72.0538 51.1351H69.7295V53.4595H72.0538V51.1351Z" fill="black"/>
<path d="M74.378 51.1351H72.0537V53.4595H74.378V51.1351Z" fill="black"/>
<path d="M79.0265 51.1351H76.7021V53.4595H79.0265V51.1351Z" fill="black"/>
<path d="M6.97276 53.4595H4.64844V55.7838H6.97276V53.4595Z" fill="black"/>
<path d="M9.29698 53.4595H6.97266V55.7838H9.29698V53.4595Z" fill="black"/>
<path d="M11.6212 53.4595H9.29688V55.7838H11.6212V53.4595Z" fill="black"/>
<path d="M13.9454 53.4595H11.6211V55.7838H13.9454V53.4595Z" fill="black"/>
<path d="M16.2696 53.4595H13.9453V55.7838H16.2696V53.4595Z" fill="black"/>
<path d="M18.5948 53.4595H16.2705V55.7838H18.5948V53.4595Z" fill="black"/>
<path d="M23.2433 53.4595H20.9189V55.7838H23.2433V53.4595Z" fill="black"/>
<path d="M27.8917 53.4595H25.5674V55.7838H27.8917V53.4595Z" fill="black"/>
<path d="M30.2159 53.4595H27.8916V55.7838H30.2159V53.4595Z" fill="black"/>
<path d="M32.5401 53.4595H30.2158V55.7838H32.5401V53.4595Z" fill="black"/>
<path d="M39.5138 53.4595H37.1895V55.7838H39.5138V53.4595Z" fill="black"/>
<path d="M41.838 53.4595H39.5137V55.7838H41.838V53.4595Z" fill="black"/>
<path d="M44.1622 53.4595H41.8379V55.7838H44.1622V53.4595Z" fill="black"/>
<path d="M46.4864 53.4595H44.1621V55.7838H46.4864V53.4595Z" fill="black"/>
<path d="M53.4591 53.4595H51.1348V55.7838H53.4591V53.4595Z" fill="black"/>
<path d="M58.1075 53.4595H55.7832V55.7838H58.1075V53.4595Z" fill="black"/>
<path d="M60.4317 53.4595H58.1074V55.7838H60.4317V53.4595Z" fill="black"/>
<path d="M67.4054 53.4595H65.0811V55.7838H67.4054V53.4595Z" fill="black"/>
<path d="M74.378 53.4595H72.0537V55.7838H74.378V53.4595Z" fill="black"/>
<path d="M76.7023 53.4595H74.3779V55.7838H76.7023V53.4595Z" fill="black"/>
<path d="M81.3507 53.4595H79.0264V55.7838H81.3507V53.4595Z" fill="black"/>
<path d="M6.97276 55.7838H4.64844V58.1081H6.97276V55.7838Z" fill="black"/>
<path d="M20.9191 55.7838H18.5947V58.1081H20.9191V55.7838Z" fill="black"/>
<path d="M23.2433 55.7838H20.9189V58.1081H23.2433V55.7838Z" fill="black"/>
<path d="M25.5675 55.7838H23.2432V58.1081H25.5675V55.7838Z" fill="black"/>
<path d="M32.5401 55.7838H30.2158V58.1081H32.5401V55.7838Z" fill="black"/>
<path d="M34.8644 55.7838H32.54V58.1081H34.8644V55.7838Z" fill="black"/>
<path d="M39.5138 55.7838H37.1895V58.1081H39.5138V55.7838Z" fill="black"/>
<path d="M51.1349 55.7838H48.8105V58.1081H51.1349V55.7838Z" fill="black"/>
<path d="M58.1075 55.7838H55.7832V58.1081H58.1075V55.7838Z" fill="black"/>
<path d="M62.7569 55.7838H60.4326V58.1081H62.7569V55.7838Z" fill="black"/>
<path d="M65.0812 55.7838H62.7568V58.1081H65.0812V55.7838Z" fill="black"/>
<path d="M69.7296 55.7838H67.4053V58.1081H69.7296V55.7838Z" fill="black"/>
<path d="M72.0538 55.7838H69.7295V58.1081H72.0538V55.7838Z" fill="black"/>
<path d="M79.0265 55.7838H76.7021V58.1081H79.0265V55.7838Z" fill="black"/>
<path d="M6.97276 58.1082H4.64844V60.4325H6.97276V58.1082Z" fill="black"/>
<path d="M11.6212 58.1082H9.29688V60.4325H11.6212V58.1082Z" fill="black"/>
<path d="M23.2433 58.1082H20.9189V60.4325H23.2433V58.1082Z" fill="black"/>
<path d="M27.8917 58.1082H25.5674V60.4325H27.8917V58.1082Z" fill="black"/>
<path d="M30.2159 58.1082H27.8916V60.4325H30.2159V58.1082Z" fill="black"/>
<path d="M34.8644 58.1082H32.54V60.4325H34.8644V58.1082Z" fill="black"/>
<path d="M37.1886 58.1082H34.8643V60.4325H37.1886V58.1082Z" fill="black"/>
<path d="M39.5138 58.1082H37.1895V60.4325H39.5138V58.1082Z" fill="black"/>
<path d="M44.1622 58.1082H41.8379V60.4325H44.1622V58.1082Z" fill="black"/>
<path d="M51.1349 58.1082H48.8105V60.4325H51.1349V58.1082Z" fill="black"/>
<path d="M53.4591 58.1082H51.1348V60.4325H53.4591V58.1082Z" fill="black"/>
<path d="M55.7833 58.1082H53.459V60.4325H55.7833V58.1082Z" fill="black"/>
<path d="M58.1075 58.1082H55.7832V60.4325H58.1075V58.1082Z" fill="black"/>
<path d="M67.4054 58.1082H65.0811V60.4325H67.4054V58.1082Z" fill="black"/>
<path d="M69.7296 58.1082H67.4053V60.4325H69.7296V58.1082Z" fill="black"/>
<path d="M74.378 58.1082H72.0537V60.4325H74.378V58.1082Z" fill="black"/>
<path d="M76.7023 58.1082H74.3779V60.4325H76.7023V58.1082Z" fill="black"/>
<path d="M79.0265 58.1082H76.7021V60.4325H79.0265V58.1082Z" fill="black"/>
<path d="M81.3507 58.1082H79.0264V60.4325H81.3507V58.1082Z" fill="black"/>
<path d="M6.97276 60.4325H4.64844V62.7568H6.97276V60.4325Z" fill="black"/>
<path d="M13.9454 60.4325H11.6211V62.7568H13.9454V60.4325Z" fill="black"/>
<path d="M20.9191 60.4325H18.5947V62.7568H20.9191V60.4325Z" fill="black"/>
<path d="M23.2433 60.4325H20.9189V62.7568H23.2433V60.4325Z" fill="black"/>
<path d="M27.8917 60.4325H25.5674V62.7568H27.8917V60.4325Z" fill="black"/>
<path d="M32.5401 60.4325H30.2158V62.7568H32.5401V60.4325Z" fill="black"/>
<path d="M44.1622 60.4325H41.8379V62.7568H44.1622V60.4325Z" fill="black"/>
<path d="M46.4864 60.4325H44.1621V62.7568H46.4864V60.4325Z" fill="black"/>
<path d="M48.8107 60.4325H46.4863V62.7568H48.8107V60.4325Z" fill="black"/>
<path d="M51.1349 60.4325H48.8105V62.7568H51.1349V60.4325Z" fill="black"/>
<path d="M58.1075 60.4325H55.7832V62.7568H58.1075V60.4325Z" fill="black"/>
<path d="M62.7569 60.4325H60.4326V62.7568H62.7569V60.4325Z" fill="black"/>
<path d="M65.0812 60.4325H62.7568V62.7568H65.0812V60.4325Z" fill="black"/>
<path d="M67.4054 60.4325H65.0811V62.7568H67.4054V60.4325Z" fill="black"/>
<path d="M69.7296 60.4325H67.4053V62.7568H69.7296V60.4325Z" fill="black"/>
<path d="M72.0538 60.4325H69.7295V62.7568H72.0538V60.4325Z" fill="black"/>
<path d="M81.3507 60.4325H79.0264V62.7568H81.3507V60.4325Z" fill="black"/>
<path d="M25.5675 62.7568H23.2432V65.0812H25.5675V62.7568Z" fill="black"/>
<path d="M30.2159 62.7568H27.8916V65.0812H30.2159V62.7568Z" fill="black"/>
<path d="M32.5401 62.7568H30.2158V65.0812H32.5401V62.7568Z" fill="black"/>
<path d="M34.8644 62.7568H32.54V65.0812H34.8644V62.7568Z" fill="black"/>
<path d="M37.1886 62.7568H34.8643V65.0812H37.1886V62.7568Z" fill="black"/>
<path d="M39.5138 62.7568H37.1895V65.0812H39.5138V62.7568Z" fill="black"/>
<path d="M44.1622 62.7568H41.8379V65.0812H44.1622V62.7568Z" fill="black"/>
<path d="M46.4864 62.7568H44.1621V65.0812H46.4864V62.7568Z" fill="black"/>
<path d="M48.8107 62.7568H46.4863V65.0812H48.8107V62.7568Z" fill="black"/>
<path d="M51.1349 62.7568H48.8105V65.0812H51.1349V62.7568Z" fill="black"/>
<path d="M53.4591 62.7568H51.1348V65.0812H53.4591V62.7568Z" fill="black"/>
<path d="M62.7569 62.7568H60.4326V65.0812H62.7569V62.7568Z" fill="black"/>
<path d="M72.0538 62.7568H69.7295V65.0812H72.0538V62.7568Z" fill="black"/>
<path d="M76.7023 62.7568H74.3779V65.0812H76.7023V62.7568Z" fill="black"/>
<path d="M81.3507 62.7568H79.0264V65.0812H81.3507V62.7568Z" fill="black"/>
<path d="M30.2159 65.0811H27.8916V67.4054H30.2159V65.0811Z" fill="black"/>
<path d="M34.8644 65.0811H32.54V67.4054H34.8644V65.0811Z" fill="black"/>
<path d="M39.5138 65.0811H37.1895V67.4054H39.5138V65.0811Z" fill="black"/>
<path d="M41.838 65.0811H39.5137V67.4054H41.838V65.0811Z" fill="black"/>
<path d="M44.1622 65.0811H41.8379V67.4054H44.1622V65.0811Z" fill="black"/>
<path d="M46.4864 65.0811H44.1621V67.4054H46.4864V65.0811Z" fill="black"/>
<path d="M53.4591 65.0811H51.1348V67.4054H53.4591V65.0811Z" fill="black"/>
<path d="M58.1075 65.0811H55.7832V67.4054H58.1075V65.0811Z" fill="black"/>
<path d="M60.4317 65.0811H58.1074V67.4054H60.4317V65.0811Z" fill="black"/>
<path d="M62.7569 65.0811H60.4326V67.4054H62.7569V65.0811Z" fill="black"/>
<path d="M67.4054 65.0811H65.0811V67.4054H67.4054V65.0811Z" fill="black"/>
<path d="M72.0538 65.0811H69.7295V67.4054H72.0538V65.0811Z" fill="black"/>
<path d="M76.7023 65.0811H74.3779V67.4054H76.7023V65.0811Z" fill="black"/>
<path d="M79.0265 65.0811H76.7021V67.4054H79.0265V65.0811Z" fill="black"/>
<path d="M25.5675 67.4054H23.2432V69.7297H25.5675V67.4054Z" fill="black"/>
<path d="M30.2159 67.4054H27.8916V69.7297H30.2159V67.4054Z" fill="black"/>
<path d="M37.1886 67.4054H34.8643V69.7297H37.1886V67.4054Z" fill="black"/>
<path d="M46.4864 67.4054H44.1621V69.7297H46.4864V67.4054Z" fill="black"/>
<path d="M48.8107 67.4054H46.4863V69.7297H48.8107V67.4054Z" fill="black"/>
<path d="M51.1349 67.4054H48.8105V69.7297H51.1349V67.4054Z" fill="black"/>
<path d="M53.4591 67.4054H51.1348V69.7297H53.4591V67.4054Z" fill="black"/>
<path d="M60.4317 67.4054H58.1074V69.7297H60.4317V67.4054Z" fill="black"/>
<path d="M62.7569 67.4054H60.4326V69.7297H62.7569V67.4054Z" fill="black"/>
<path d="M72.0538 67.4054H69.7295V69.7297H72.0538V67.4054Z" fill="black"/>
<path d="M74.378 67.4054H72.0537V69.7297H74.378V67.4054Z" fill="black"/>
<path d="M76.7023 67.4054H74.3779V69.7297H76.7023V67.4054Z" fill="black"/>
<path d="M79.0265 67.4054H76.7021V69.7297H79.0265V67.4054Z" fill="black"/>
<path d="M25.5675 69.7297H23.2432V72.0541H25.5675V69.7297Z" fill="black"/>
<path d="M34.8644 69.7297H32.54V72.0541H34.8644V69.7297Z" fill="black"/>
<path d="M41.838 69.7297H39.5137V72.0541H41.838V69.7297Z" fill="black"/>
<path d="M44.1622 69.7297H41.8379V72.0541H44.1622V69.7297Z" fill="black"/>
<path d="M53.4591 69.7297H51.1348V72.0541H53.4591V69.7297Z" fill="black"/>
<path d="M55.7833 69.7297H53.459V72.0541H55.7833V69.7297Z" fill="black"/>
<path d="M58.1075 69.7297H55.7832V72.0541H58.1075V69.7297Z" fill="black"/>
<path d="M62.7569 69.7297H60.4326V72.0541H62.7569V69.7297Z" fill="black"/>
<path d="M65.0812 69.7297H62.7568V72.0541H65.0812V69.7297Z" fill="black"/>
<path d="M67.4054 69.7297H65.0811V72.0541H67.4054V69.7297Z" fill="black"/>
<path d="M69.7296 69.7297H67.4053V72.0541H69.7296V69.7297Z" fill="black"/>
<path d="M72.0538 69.7297H69.7295V72.0541H72.0538V69.7297Z" fill="black"/>
<path d="M74.378 69.7297H72.0537V72.0541H74.378V69.7297Z" fill="black"/>
<path d="M79.0265 69.7297H76.7021V72.0541H79.0265V69.7297Z" fill="black"/>
<path d="M81.3507 69.7297H79.0264V72.0541H81.3507V69.7297Z" fill="black"/>
<path d="M25.5675 72.0541H23.2432V74.3784H25.5675V72.0541Z" fill="black"/>
<path d="M30.2159 72.0541H27.8916V74.3784H30.2159V72.0541Z" fill="black"/>
<path d="M32.5401 72.0541H30.2158V74.3784H32.5401V72.0541Z" fill="black"/>
<path d="M34.8644 72.0541H32.54V74.3784H34.8644V72.0541Z" fill="black"/>
<path d="M41.838 72.0541H39.5137V74.3784H41.838V72.0541Z" fill="black"/>
<path d="M46.4864 72.0541H44.1621V74.3784H46.4864V72.0541Z" fill="black"/>
<path d="M48.8107 72.0541H46.4863V74.3784H48.8107V72.0541Z" fill="black"/>
<path d="M60.4317 72.0541H58.1074V74.3784H60.4317V72.0541Z" fill="black"/>
<path d="M65.0812 72.0541H62.7568V74.3784H65.0812V72.0541Z" fill="black"/>
<path d="M72.0538 72.0541H69.7295V74.3784H72.0538V72.0541Z" fill="black"/>
<path d="M81.3507 72.0541H79.0264V74.3784H81.3507V72.0541Z" fill="black"/>
<path d="M25.5675 74.3784H23.2432V76.7027H25.5675V74.3784Z" fill="black"/>
<path d="M30.2159 74.3784H27.8916V76.7027H30.2159V74.3784Z" fill="black"/>
<path d="M32.5401 74.3784H30.2158V76.7027H32.5401V74.3784Z" fill="black"/>
<path d="M37.1886 74.3784H34.8643V76.7027H37.1886V74.3784Z" fill="black"/>
<path d="M41.838 74.3784H39.5137V76.7027H41.838V74.3784Z" fill="black"/>
<path d="M44.1622 74.3784H41.8379V76.7027H44.1622V74.3784Z" fill="black"/>
<path d="M46.4864 74.3784H44.1621V76.7027H46.4864V74.3784Z" fill="black"/>
<path d="M53.4591 74.3784H51.1348V76.7027H53.4591V74.3784Z" fill="black"/>
<path d="M58.1075 74.3784H55.7832V76.7027H58.1075V74.3784Z" fill="black"/>
<path d="M60.4317 74.3784H58.1074V76.7027H60.4317V74.3784Z" fill="black"/>
<path d="M67.4054 74.3784H65.0811V76.7027H67.4054V74.3784Z" fill="black"/>
<path d="M69.7296 74.3784H67.4053V76.7027H69.7296V74.3784Z" fill="black"/>
<path d="M74.378 74.3784H72.0537V76.7027H74.378V74.3784Z" fill="black"/>
<path d="M76.7023 74.3784H74.3779V76.7027H76.7023V74.3784Z" fill="black"/>
<path d="M27.8917 76.7028H25.5674V79.0271H27.8917V76.7028Z" fill="black"/>
<path d="M30.2159 76.7028H27.8916V79.0271H30.2159V76.7028Z" fill="black"/>
<path d="M32.5401 76.7028H30.2158V79.0271H32.5401V76.7028Z" fill="black"/>
<path d="M37.1886 76.7028H34.8643V79.0271H37.1886V76.7028Z" fill="black"/>
<path d="M41.838 76.7028H39.5137V79.0271H41.838V76.7028Z" fill="black"/>
<path d="M55.7833 76.7028H53.459V79.0271H55.7833V76.7028Z" fill="black"/>
<path d="M58.1075 76.7028H55.7832V79.0271H58.1075V76.7028Z" fill="black"/>
<path d="M65.0812 76.7028H62.7568V79.0271H65.0812V76.7028Z" fill="black"/>
<path d="M67.4054 76.7028H65.0811V79.0271H67.4054V76.7028Z" fill="black"/>
<path d="M72.0538 76.7028H69.7295V79.0271H72.0538V76.7028Z" fill="black"/>
<path d="M74.378 76.7028H72.0537V79.0271H74.378V76.7028Z" fill="black"/>
<path d="M76.7023 76.7028H74.3779V79.0271H76.7023V76.7028Z" fill="black"/>
<path d="M25.5675 79.0271H23.2432V81.3514H25.5675V79.0271Z" fill="black"/>
<path d="M27.8917 79.0271H25.5674V81.3514H27.8917V79.0271Z" fill="black"/>
<path d="M30.2159 79.0271H27.8916V81.3514H30.2159V79.0271Z" fill="black"/>
<path d="M32.5401 79.0271H30.2158V81.3514H32.5401V79.0271Z" fill="black"/>
<path d="M34.8644 79.0271H32.54V81.3514H34.8644V79.0271Z" fill="black"/>
<path d="M41.838 79.0271H39.5137V81.3514H41.838V79.0271Z" fill="black"/>
<path d="M44.1622 79.0271H41.8379V81.3514H44.1622V79.0271Z" fill="black"/>
<path d="M46.4864 79.0271H44.1621V81.3514H46.4864V79.0271Z" fill="black"/>
<path d="M58.1075 79.0271H55.7832V81.3514H58.1075V79.0271Z" fill="black"/>
<path d="M60.4317 79.0271H58.1074V81.3514H60.4317V79.0271Z" fill="black"/>
<path d="M62.7569 79.0271H60.4326V81.3514H62.7569V79.0271Z" fill="black"/>
<path d="M65.0812 79.0271H62.7568V81.3514H65.0812V79.0271Z" fill="black"/>
<path d="M67.4054 79.0271H65.0811V81.3514H67.4054V79.0271Z" fill="black"/>
<path d="M69.7296 79.0271H67.4053V81.3514H69.7296V79.0271Z" fill="black"/>
<path d="M74.378 79.0271H72.0537V81.3514H74.378V79.0271Z" fill="black"/>
<path d="M79.0265 79.0271H76.7021V81.3514H79.0265V79.0271Z" fill="black"/>
<path d="M18.4782 4.64868H7.08898H4.64844V7.08922V18.4784V20.919H7.08898H18.4782H20.9187V18.4784V7.08922V4.64868H18.4782ZM18.4782 18.4784H7.08898V7.08922H18.4782V18.4784Z" fill="black"/>
<path d="M78.9108 4.64868H67.5216H65.0811V7.08922V18.4784V20.919H67.5216H78.9108H81.3513V18.4784V7.08922V4.64868H78.9108ZM78.9108 18.4784H67.5216V7.08922H78.9108V18.4784Z" fill="black"/>
<path d="M18.4782 65.0811H7.08898H4.64844V67.5216V78.9108V81.3513H7.08898H18.4782H20.9187V78.9108V67.5216V65.0811H18.4782ZM18.4782 78.9108H7.08898V67.5216H18.4782V78.9108Z" fill="black"/>
<path d="M16.2698 9.29736H9.29688V16.2703H16.2698V9.29736Z" fill="black"/>
<path d="M76.7025 9.29736H69.7295V16.2703H76.7025V9.29736Z" fill="black"/>
<path d="M16.2698 69.7297H9.29688V76.7027H16.2698V69.7297Z" fill="black"/>
</svg>
