<svg width="1343" height="148" viewBox="0 0 1343 148" fill="none" xmlns="http://www.w3.org/2000/svg">
<circle cx="8.5" cy="35.7527" r="8.5" fill="white" fill-opacity="0.95"/>
<circle cx="8.5" cy="114.753" r="8.5" fill="white" fill-opacity="0.95"/>
<path d="M39.2574 -3.12472e-06C74.2574 50 73.7574 100.5 39.2575 147.5L39.2578 147.5C42.2577 147.5 45.2576 147.5 49.197 147.753C98.2574 87 65.2573 14.5 48.7574 -2.2942e-06L39.2574 -3.12472e-06Z" fill="white" fill-opacity="0.95"/>
<path d="M39.2574 -3.12472e-06C74.2574 50 73.7574 100.5 39.2575 147.5L39.2578 147.5C42.2577 147.5 45.2576 147.5 49.197 147.753C98.2574 87 65.2573 14.5 48.7574 -2.2942e-06L39.2574 -3.12472e-06Z" fill="white" fill-opacity="0.95"/>
<path d="M96.2574 -3.12472e-06C131.257 50 130.757 100.5 96.2575 147.5L96.2578 147.5C99.2577 147.5 102.258 147.5 106.197 147.753C155.257 87 122.257 14.5 105.757 -2.2942e-06L96.2574 -3.12472e-06Z" fill="white" fill-opacity="0.95"/>
<path d="M154 -3.12472e-06C189 50 188.5 100.5 154 147.5L154 147.5C157 147.5 160 147.5 163.939 147.753C213 87 179.999 14.5 163.5 -2.2942e-06L154 -3.12472e-06Z" fill="white" fill-opacity="0.95"/>
<path d="M211 -3.12472e-06C246 50 245.5 100.5 211 147.5L211 147.5C214 147.5 217 147.5 220.939 147.753C270 87 236.999 14.5 220.5 -2.2942e-06L211 -3.12472e-06Z" fill="white" fill-opacity="0.95"/>
<path d="M269 -3.12472e-06C304 50 303.5 100.5 269 147.5L269 147.5C272 147.5 275 147.5 278.939 147.753C328 87 294.999 14.5 278.5 -2.2942e-06L269 -3.12472e-06Z" fill="white" fill-opacity="0.95"/>
<path d="M327 -3.12472e-06C362 50 361.5 100.5 327 147.5L327 147.5C330 147.5 333 147.5 336.939 147.753C386 87 352.999 14.5 336.5 -2.2942e-06L327 -3.12472e-06Z" fill="white" fill-opacity="0.95"/>
<path d="M385 -3.12472e-06C420 50 419.5 100.5 385 147.5L385 147.5C388 147.5 391 147.5 394.939 147.753C444 87 410.999 14.5 394.5 -2.2942e-06L385 -3.12472e-06Z" fill="white" fill-opacity="0.95"/>
<path d="M443 -3.12472e-06C478 50 477.5 100.5 443 147.5L443 147.5C446 147.5 449 147.5 452.939 147.753C502 87 468.999 14.5 452.5 -2.2942e-06L443 -3.12472e-06Z" fill="white" fill-opacity="0.95"/>
<path d="M501 -3.12472e-06C536 50 535.5 100.5 501 147.5L501 147.5C504 147.5 507 147.5 510.939 147.753C560 87 526.999 14.5 510.5 -2.2942e-06L501 -3.12472e-06Z" fill="white" fill-opacity="0.95"/>
<path d="M559 -3.12472e-06C594 50 593.5 100.5 559 147.5L559 147.5C562 147.5 565 147.5 568.939 147.753C618 87 584.999 14.5 568.5 -2.2942e-06L559 -3.12472e-06Z" fill="white" fill-opacity="0.95"/>
<path d="M617 -3.12472e-06C652 50 651.5 100.5 617 147.5L617 147.5C620 147.5 623 147.5 626.939 147.753C676 87 642.999 14.5 626.5 -2.2942e-06L617 -3.12472e-06Z" fill="white" fill-opacity="0.95"/>
<path d="M675 -3.12472e-06C710 50 709.5 100.5 675 147.5L675 147.5C678 147.5 681 147.5 684.939 147.753C734 87 700.999 14.5 684.5 -2.2942e-06L675 -3.12472e-06Z" fill="white" fill-opacity="0.95"/>
<path d="M733 -3.12472e-06C768 50 767.5 100.5 733 147.5L733 147.5C736 147.5 739 147.5 742.939 147.753C792 87 758.999 14.5 742.5 -2.2942e-06L733 -3.12472e-06Z" fill="white" fill-opacity="0.95"/>
<path d="M791 -3.12472e-06C826 50 825.5 100.5 791 147.5L791 147.5C794 147.5 797 147.5 800.939 147.753C850 87 816.999 14.5 800.5 -2.2942e-06L791 -3.12472e-06Z" fill="white" fill-opacity="0.95"/>
<path d="M849 -3.12472e-06C884 50 883.5 100.5 849 147.5L849 147.5C852 147.5 855 147.5 858.939 147.753C908 87 874.999 14.5 858.5 -2.2942e-06L849 -3.12472e-06Z" fill="white" fill-opacity="0.95"/>
<path d="M907 -3.12472e-06C942 50 941.5 100.5 907 147.5L907 147.5C910 147.5 913 147.5 916.939 147.753C966 87 932.999 14.5 916.5 -2.2942e-06L907 -3.12472e-06Z" fill="white" fill-opacity="0.95"/>
<path d="M965 -3.12472e-06C1000 50 999.5 100.5 965 147.5L965 147.5C968 147.5 971 147.5 974.939 147.753C1024 87 990.999 14.5 974.5 -2.2942e-06L965 -3.12472e-06Z" fill="white" fill-opacity="0.95"/>
<path d="M1023 -3.12472e-06C1058 50 1057.5 100.5 1023 147.5L1023 147.5C1026 147.5 1029 147.5 1032.94 147.753C1082 87 1049 14.5 1032.5 -2.2942e-06L1023 -3.12472e-06Z" fill="white" fill-opacity="0.95"/>
<path d="M1081 -3.12472e-06C1116 50 1115.5 100.5 1081 147.5L1081 147.5C1084 147.5 1087 147.5 1090.94 147.753C1140 87 1107 14.5 1090.5 -2.2942e-06L1081 -3.12472e-06Z" fill="white" fill-opacity="0.95"/>
<path d="M1139 -3.12472e-06C1174 50 1173.5 100.5 1139 147.5L1139 147.5C1142 147.5 1145 147.5 1148.94 147.753C1198 87 1165 14.5 1148.5 -2.2942e-06L1139 -3.12472e-06Z" fill="white" fill-opacity="0.95"/>
<path d="M1197 -3.12472e-06C1232 50 1231.5 100.5 1197 147.5L1197 147.5C1200 147.5 1203 147.5 1206.94 147.753C1256 87 1223 14.5 1206.5 -2.2942e-06L1197 -3.12472e-06Z" fill="white" fill-opacity="0.95"/>
<path d="M1255 -3.12472e-06C1290 50 1289.5 100.5 1255 147.5L1255 147.5C1258 147.5 1261 147.5 1264.94 147.753C1314 87 1281 14.5 1264.5 -2.2942e-06L1255 -3.12472e-06Z" fill="white" fill-opacity="0.95"/>
<path d="M1307 -3.12472e-06C1342 50 1341.5 100.5 1307 147.5L1307 147.5C1310 147.5 1313 147.5 1316.94 147.753C1366 87 1333 14.5 1316.5 -2.2942e-06L1307 -3.12472e-06Z" fill="white" fill-opacity="0.95"/>
</svg>
