<svg width="130" height="172" viewBox="0 0 130 172" fill="none" xmlns="http://www.w3.org/2000/svg">
<path d="M0 0H92.1172L129.121 34.6423V171.637H0V0Z" fill="white"/>
<path d="M37.0047 84.384V79.9441H66.1347V84.384H37.0047Z" fill="#1F1F1F"/>
<path d="M85.3112 84.384H60.7112V79.9441H85.3112V84.384ZM73.6412 63.8941L89.9612 82.164L73.6412 100.434L69.9212 97.2541L78.4712 87.8341C79.2912 86.9541 79.9512 86.2741 80.4512 85.7941C80.9512 85.3141 81.5712 84.844 82.3112 84.384V79.9441C81.5712 79.4841 80.9512 79.014 80.4512 78.534C79.9512 78.0541 79.2912 77.374 78.4712 76.494L69.9212 67.0741L73.6412 63.8941Z" fill="#1F1F1F"/>
</svg>
